<?xml version="1.0" standalone="no"?>
 <!DOCTYPE svg PUBLIC "-//W3C//DTD SVG 1.1//EN" 
 "http://www.w3.org/Graphics/SVG/1.1/DTD/svg11.dtd"> 
<svg xmlns="http://www.w3.org/2000/svg" version="1.1" 
    width="8.5725cm" height="8.5725cm" viewBox="0 0 33750 33750 ">
<title>SVG Picture created as bottom-plate-brd.svg date 2016/11/21 18:50:00 </title>
  <desc>Picture generated by PCBNEW </desc>
<g style="fill:#000000; fill-opacity:1;stroke:#000000; stroke-opacity:1;
stroke-linecap:round; stroke-linejoin:round; "
 transform="translate(0 0) scale(1 1)">
</g>
<g style="fill:#000000; fill-opacity:0.0; 
stroke:#000000; stroke-width:-0.000393701; stroke-opacity:1; 
stroke-linecap:round; stroke-linejoin:round;">
</g>
<g style="fill:#840084; fill-opacity:0.0; 
stroke:#840084; stroke-width:-0.000393701; stroke-opacity:1; 
stroke-linecap:round; stroke-linejoin:round;">
</g>
<g style="fill:#840084; fill-opacity:0.0; 
stroke:#840084; stroke-width:78.7402; stroke-opacity:1; 
stroke-linecap:round; stroke-linejoin:round;">
<path d="M22994 18963
L22994 18491
" />
<path d="M22791 18963
L22791 18716
L22814 18671
L22859 18648
L22926 18648
L22971 18671
L22994 18693
" />
<path d="M22634 18648
L22454 18648
" />
<path d="M22566 18491
L22566 18896
L22544 18941
L22499 18963
L22454 18963
" />
<path d="M22364 18648
L22184 18648
" />
<path d="M22296 18491
L22296 18896
L22274 18941
L22229 18963
L22184 18963
" />
<path d="M22026 18648
L22026 19121
" />
<path d="M22026 18671
L21981 18648
L21891 18648
L21846 18671
L21824 18693
L21801 18738
L21801 18873
L21824 18918
L21846 18941
L21891 18963
L21981 18963
L22026 18941
" />
<path d="M21621 18941
L21576 18963
L21486 18963
L21441 18941
L21419 18896
L21419 18873
L21441 18828
L21486 18806
L21554 18806
L21599 18783
L21621 18738
L21621 18716
L21599 18671
L21554 18648
L21486 18648
L21441 18671
" />
<path d="M21216 18918
L21194 18941
L21216 18963
L21239 18941
L21216 18918
L21216 18963
" />
<path d="M21216 18671
L21194 18693
L21216 18716
L21239 18693
L21216 18671
L21216 18716
" />
<path d="M20654 18468
L21059 19076
" />
<path d="M20159 18468
L20564 19076
" />
<path d="M19799 18648
L19799 19031
L19822 19076
L19844 19098
L19889 19121
L19957 19121
L20002 19098
" />
<path d="M19799 18941
L19844 18963
L19934 18963
L19979 18941
L20002 18918
L20024 18873
L20024 18738
L20002 18693
L19979 18671
L19934 18648
L19844 18648
L19799 18671
" />
<path d="M19574 18963
L19574 18648
" />
<path d="M19574 18491
L19597 18513
L19574 18536
L19552 18513
L19574 18491
L19574 18536
" />
<path d="M19417 18648
L19237 18648
" />
<path d="M19349 18491
L19349 18896
L19327 18941
L19282 18963
L19237 18963
" />
<path d="M19079 18963
L19079 18491
" />
<path d="M18877 18963
L18877 18716
L18899 18671
L18944 18648
L19012 18648
L19057 18671
L19079 18693
" />
<path d="M18449 18648
L18449 18963
" />
<path d="M18652 18648
L18652 18896
L18629 18941
L18584 18963
L18517 18963
L18472 18941
L18449 18918
" />
<path d="M18224 18963
L18224 18491
" />
<path d="M18224 18671
L18179 18648
L18089 18648
L18044 18671
L18022 18693
L17999 18738
L17999 18873
L18022 18918
L18044 18941
L18089 18963
L18179 18963
L18224 18941
" />
<path d="M17797 18918
L17774 18941
L17797 18963
L17819 18941
L17797 18918
L17797 18963
" />
<path d="M17369 18941
L17414 18963
L17504 18963
L17549 18941
L17572 18918
L17594 18873
L17594 18738
L17572 18693
L17549 18671
L17504 18648
L17414 18648
L17369 18671
" />
<path d="M17099 18963
L17144 18941
L17167 18918
L17189 18873
L17189 18738
L17167 18693
L17144 18671
L17099 18648
L17032 18648
L16987 18671
L16964 18693
L16942 18738
L16942 18873
L16964 18918
L16987 18941
L17032 18963
L17099 18963
" />
<path d="M16740 18963
L16740 18648
" />
<path d="M16740 18693
L16717 18671
L16672 18648
L16605 18648
L16560 18671
L16537 18716
L16537 18963
" />
<path d="M16537 18716
L16515 18671
L16470 18648
L16402 18648
L16357 18671
L16335 18716
L16335 18963
" />
<path d="M15772 18468
L16177 19076
" />
<path d="M15682 18648
L15502 18648
" />
<path d="M15615 18491
L15615 18896
L15592 18941
L15547 18963
L15502 18963
" />
<path d="M15345 18963
L15345 18648
" />
<path d="M15345 18738
L15322 18693
L15300 18671
L15255 18648
L15210 18648
" />
<path d="M14872 18941
L14917 18963
L15007 18963
L15052 18941
L15075 18896
L15075 18716
L15052 18671
L15007 18648
L14917 18648
L14872 18671
L14850 18716
L14850 18761
L15075 18806
" />
<path d="M14647 18963
L14647 18491
" />
<path d="M14647 18671
L14602 18648
L14512 18648
L14467 18671
L14445 18693
L14422 18738
L14422 18873
L14445 18918
L14467 18941
L14512 18963
L14602 18963
L14647 18941
" />
<path d="M14220 18963
L14220 18491
" />
<path d="M14220 18671
L14175 18648
L14085 18648
L14040 18671
L14017 18693
L13995 18738
L13995 18873
L14017 18918
L14040 18941
L14085 18963
L14175 18963
L14220 18941
" />
<path d="M13455 18468
L13860 19076
" />
<path d="M13297 18648
L13297 18963
" />
<path d="M13297 18693
L13275 18671
L13230 18648
L13162 18648
L13117 18671
L13095 18716
L13095 18963
" />
<path d="M12668 18963
L12668 18716
L12690 18671
L12735 18648
L12825 18648
L12870 18671
" />
<path d="M12668 18941
L12713 18963
L12825 18963
L12870 18941
L12892 18896
L12892 18851
L12870 18806
L12825 18783
L12713 18783
L12668 18761
" />
<path d="M12443 18648
L12443 18963
" />
<path d="M12443 18693
L12420 18671
L12375 18648
L12308 18648
L12263 18671
L12240 18716
L12240 18963
" />
<path d="M12015 18783
L11655 18783
" />
<path d="M11183 18963
L11453 18963
" />
<path d="M11318 18963
L11318 18491
L11363 18558
L11408 18603
L11453 18626
" />
<path d="M10755 18491
L10980 18491
L11003 18716
L10980 18693
L10935 18671
L10823 18671
L10778 18693
L10755 18716
L10733 18761
L10733 18873
L10755 18918
L10778 18941
L10823 18963
L10935 18963
L10980 18941
L11003 18918
" />
</g>
<g style="fill:#840084; fill-opacity:0.0; 
stroke:#840084; stroke-width:118.11; stroke-opacity:1; 
stroke-linecap:round; stroke-linejoin:round;">
<path d="M18548 17142
L18548 16551
L18210 17142
L18210 16551
" />
<path d="M17676 17142
L17676 16832
L17704 16776
L17760 16748
L17873 16748
L17929 16776
" />
<path d="M17676 17114
L17732 17142
L17873 17142
L17929 17114
L17957 17057
L17957 17001
L17929 16945
L17873 16917
L17732 16917
L17676 16889
" />
<path d="M17395 17142
L17395 16551
L17057 17142
L17057 16551
" />
<path d="M16776 16917
L16326 16917
" />
<path d="M15736 17142
L16073 17142
" />
<path d="M15904 17142
L15904 16551
L15961 16635
L16017 16692
L16073 16720
" />
<path d="M15201 16551
L15482 16551
L15511 16832
L15482 16804
L15426 16776
L15286 16776
L15229 16804
L15201 16832
L15173 16889
L15173 17029
L15201 17085
L15229 17114
L15286 17142
L15426 17142
L15482 17114
L15511 17085
" />
</g>
<g style="fill:#840084; fill-opacity:1.0; 
stroke:#840084; stroke-width:3.93701; stroke-opacity:1; 
stroke-linecap:round; stroke-linejoin:round;">
<polyline style="fill-rule:evenodd;"
points="17873,13893
17859,13900
17842,13912
17830,13925
17821,13941
17816,13963
17813,13993
17812,14033
17812,14050
17812,14088
17813,14114
17814,14133
17817,14146
17821,14155
17826,14161
17853,14189
17885,14205
17920,14210
17955,14203
17966,14198
17993,14184
17993,14401
17974,14391
17948,14383
17917,14381
17885,14385
17861,14393
17842,14409
17825,14431
17824,14434
17818,14445
17814,14456
17812,14469
17810,14487
17809,14511
17809,14545
17809,14583
17809,14703
17881,14703
17881,14481
17901,14464
17922,14450
17942,14448
17962,14454
17973,14460
17981,14469
17987,14483
17990,14503
17993,14531
17994,14569
17995,14595
17996,14700
18031,14702
18065,14704
18065,14051
17993,14051
17991,14087
17985,14113
17973,14128
17955,14136
17937,14138
17916,14136
17903,14129
17894,14120
17887,14110
17883,14099
17882,14083
17882,14060
17882,14040
17884,14011
17886,13991
17889,13979
17895,13971
17900,13966
17922,13956
17948,13954
17963,13958
17978,13970
17988,13995
17992,14032
17993,14051
18065,14051
18065,13888
18029,13888
18007,13889
17996,13892
17993,13898
17993,13898
17991,13904
17985,13903
17972,13896
17941,13887
17906,13886
17873,13893
" /> 
<polyline style="fill-rule:evenodd;"
points="17599,14384
17568,14392
17544,14407
17528,14426
17522,14435
17519,14444
17516,14455
17514,14471
17513,14493
17513,14524
17513,14565
17513,14576
17513,14703
17544,14703
17564,14702
17579,14698
17583,14696
17593,14692
17604,14696
17621,14701
17646,14703
17673,14702
17699,14699
17713,14694
17742,14676
17760,14650
17768,14617
17768,14616
17767,14601
17703,14601
17698,14618
17689,14627
17671,14635
17647,14638
17622,14636
17603,14630
17597,14627
17587,14610
17585,14591
17585,14565
17621,14565
17656,14568
17682,14575
17699,14587
17703,14601
17767,14601
17766,14579
17754,14550
17731,14528
17728,14526
17714,14519
17697,14515
17674,14513
17646,14513
17585,14513
17585,14487
17588,14467
17594,14454
17595,14453
17610,14448
17632,14445
17656,14446
17678,14451
17691,14457
17698,14462
17705,14463
17715,14459
17730,14449
17753,14431
17755,14429
17754,14423
17745,14413
17732,14402
17717,14392
17712,14390
17695,14386
17669,14382
17641,14381
17640,14381
17599,14384
" /> 
<polyline style="fill-rule:evenodd;"
points="17394,14382
17384,14385
17381,14391
17381,14394
17381,14402
17377,14404
17366,14398
17360,14394
17340,14386
17316,14382
17291,14382
17268,14385
17249,14391
17237,14399
17234,14410
17236,14413
17244,14424
17258,14439
17260,14442
17273,14452
17285,14456
17300,14453
17306,14452
17326,14448
17340,14450
17351,14456
17362,14464
17369,14475
17375,14489
17378,14510
17380,14539
17381,14578
17381,14602
17381,14703
17447,14703
17447,14381
17414,14381
17394,14382
" /> 
<polyline style="fill-rule:evenodd;"
points="16980,14703
17016,14703
17037,14703
17048,14700
17052,14695
17052,14691
17053,14683
17057,14682
17068,14687
17077,14691
17109,14701
17145,14702
17174,14694
17201,14676
17222,14649
17233,14616
17233,14615
17235,14595
17236,14567
17236,14546
17164,14546
17162,14574
17159,14597
17153,14610
17134,14628
17111,14635
17087,14630
17067,14614
17059,14604
17055,14591
17053,14573
17052,14545
17053,14518
17056,14495
17059,14479
17060,14477
17074,14460
17094,14451
17117,14449
17138,14456
17154,14471
17156,14473
17161,14491
17163,14517
17164,14546
17236,14546
17236,14535
17235,14518
17232,14475
17225,14443
17214,14419
17198,14402
17182,14391
17159,14384
17131,14381
17103,14383
17078,14390
17066,14397
17052,14409
17052,14256
16980,14256
16980,14703
" /> 
<polyline style="fill-rule:evenodd;"
points="16727,14382
16701,14384
16667,14486
16633,14588
16622,14552
16616,14530
16608,14500
16599,14466
16594,14449
16576,14381
16501,14381
16523,14452
16534,14487
16547,14529
16561,14572
16574,14611
16602,14700
16663,14704
16680,14650
16690,14616
16701,14578
16711,14545
16711,14544
16718,14521
16725,14506
16729,14500
16730,14501
16733,14510
16739,14529
16748,14556
16758,14589
16763,14606
16791,14703
16852,14703
16900,14550
16914,14508
16926,14469
16937,14435
16945,14410
16950,14394
16952,14389
16951,14384
16941,14382
16920,14382
16917,14382
16879,14384
16854,14476
16844,14510
16836,14540
16830,14562
16826,14576
16825,14578
16822,14576
16815,14563
16807,14540
16796,14511
16787,14484
16753,14380
16727,14382
" /> 
<polyline style="fill-rule:evenodd;"
points="16331,14383
16303,14390
16295,14393
16280,14403
16268,14413
16259,14427
16253,14445
16249,14470
16246,14504
16245,14548
16244,14577
16242,14703
16279,14703
16301,14703
16312,14699
16315,14694
16317,14688
16324,14689
16333,14694
16357,14701
16388,14703
16420,14700
16449,14692
16451,14691
16478,14672
16495,14647
16503,14617
16502,14606
16437,14606
16432,14621
16415,14631
16387,14636
16373,14637
16349,14635
16332,14628
16328,14625
16318,14606
16315,14588
16315,14565
16347,14565
16385,14567
16411,14573
16427,14584
16431,14588
16437,14606
16502,14606
16501,14586
16489,14556
16473,14535
16463,14527
16453,14521
16441,14517
16422,14515
16395,14514
16384,14514
16315,14511
16315,14491
16318,14469
16328,14456
16347,14447
16348,14447
16375,14444
16402,14448
16422,14459
16430,14464
16439,14463
16452,14456
16460,14450
16475,14439
16485,14430
16486,14428
16480,14415
16461,14400
16453,14395
16430,14386
16399,14381
16365,14380
16331,14383
" /> 
<polyline style="fill-rule:evenodd;"
points="16019,14381
15994,14386
15979,14393
15964,14406
15986,14433
15999,14449
16008,14457
16017,14459
16030,14455
16036,14452
16061,14449
16084,14456
16101,14472
16104,14477
16107,14491
16109,14516
16111,14550
16111,14592
16111,14598
16111,14703
16184,14703
16184,14381
16148,14381
16127,14382
16116,14384
16112,14390
16111,14395
16111,14408
16094,14395
16074,14385
16047,14381
16019,14381
" /> 
<polyline style="fill-rule:evenodd;"
points="15811,14383
15780,14391
15753,14408
15741,14420
15720,14450
15708,14485
15704,14527
15703,14531
15703,14565
15902,14565
15898,14583
15890,14600
15877,14617
15874,14620
15850,14634
15823,14637
15791,14627
15786,14625
15769,14617
15758,14612
15756,14612
15750,14616
15737,14626
15730,14631
15717,14644
15713,14652
15716,14659
15717,14661
15728,14671
15747,14682
15759,14688
15796,14699
15836,14703
15874,14699
15884,14696
15917,14678
15942,14651
15958,14614
15966,14567
15966,14542
15964,14507
15901,14507
15895,14509
15878,14511
15854,14512
15838,14513
15809,14512
15791,14512
15781,14509
15777,14505
15776,14500
15781,14482
15796,14464
15814,14451
15833,14445
15858,14450
15880,14464
15896,14485
15901,14507
15964,14507
15963,14490
15952,14449
15932,14417
15905,14396
15870,14384
15851,14382
15811,14383
" /> 
<polyline style="fill-rule:evenodd;"
points="18203,13891
18168,13906
18142,13932
18124,13967
18114,14013
18114,14020
18113,14071
18120,14115
18134,14151
18142,14163
18168,14187
18202,14203
18240,14210
18278,14206
18308,14196
18333,14179
18353,14156
18354,14155
18362,14141
18367,14127
18371,14109
18373,14084
18373,14064
18374,14045
18308,14045
18307,14064
18305,14088
18301,14104
18294,14115
18287,14122
18262,14136
18236,14138
18212,14128
18200,14117
18191,14105
18186,14095
18184,14081
18184,14060
18185,14040
18186,14013
18189,13995
18193,13983
18200,13974
18205,13969
18229,13956
18254,13955
18276,13963
18294,13980
18305,14007
18308,14045
18374,14045
18374,14023
18373,13992
18369,13969
18362,13951
18351,13935
18347,13930
18322,13906
18295,13892
18261,13886
18245,13886
18203,13891
" /> 
<polyline style="fill-rule:evenodd;"
points="17584,13895
17578,13898
17555,13915
17534,13939
17518,13966
17513,13978
17509,14000
17506,14026
17506,14037
17506,14072
17705,14072
17701,14090
17690,14111
17672,14130
17650,14142
17637,14144
17618,14141
17596,14134
17588,14130
17560,14116
17536,14134
17522,14147
17515,14157
17515,14160
17521,14167
17536,14178
17549,14187
17584,14202
17623,14209
17662,14207
17694,14198
17726,14178
17749,14151
17763,14116
17769,14072
17770,14052
17768,14006
17767,14005
17701,14005
17700,14009
17692,14011
17677,14012
17651,14013
17641,14013
17611,14012
17592,14011
17582,14008
17579,14004
17578,14003
17583,13992
17593,13977
17597,13972
17614,13957
17631,13951
17640,13951
17665,13957
17686,13973
17700,13997
17700,13998
17701,14005
17767,14005
17760,13970
17746,13941
17729,13920
17698,13898
17661,13886
17623,13885
17584,13895
" /> 
<polyline style="fill-rule:evenodd;"
points="16867,13887
16842,13891
16816,13901
16814,13902
16794,13913
16780,13922
16776,13928
16780,13938
16790,13953
16795,13959
16813,13980
16837,13966
16860,13957
16887,13952
16912,13952
16931,13956
16936,13959
16945,13973
16946,13988
16939,14000
16935,14003
16924,14006
16903,14009
16877,14012
16872,14013
16831,14020
16801,14032
16781,14050
16770,14076
16767,14107
16772,14142
16787,14170
16813,14190
16850,14203
16891,14208
16924,14208
16951,14203
16970,14197
16993,14186
17015,14173
17023,14168
17042,14152
16995,14103
16968,14121
16940,14135
16911,14142
16884,14143
16860,14137
16843,14126
16838,14116
16839,14100
16852,14089
16878,14080
16906,14077
16950,14069
16983,14056
17005,14035
17016,14008
17017,13975
17010,13941
16992,13915
16964,13897
16926,13887
16898,13886
16867,13887
" /> 
<polyline style="fill-rule:evenodd;"
points="16555,13892
16522,13910
16496,13938
16483,13962
16478,13982
16475,14011
16473,14045
16474,14079
16477,14109
16480,14125
16490,14146
16509,14170
16531,14190
16554,14203
16554,14203
16582,14209
16614,14209
16645,14204
16657,14200
16688,14182
16710,14159
16725,14129
16733,14089
16735,14068
16734,14042
16664,14042
16662,14080
16655,14109
16644,14128
16636,14133
16616,14137
16593,14136
16572,14131
16567,14128
16553,14111
16544,14084
16540,14053
16542,14018
16546,13998
16558,13974
16578,13959
16602,13954
16626,13959
16645,13973
16655,13984
16660,13994
16663,14009
16664,14031
16664,14042
16734,14042
16734,14013
16725,13967
16708,13932
16681,13906
16647,13890
16639,13889
16594,13884
16555,13892
" /> 
<polyline style="fill-rule:evenodd;"
points="16355,13990
16354,14038
16352,14075
16347,14102
16340,14120
16329,14130
16314,14136
16296,14137
16276,14136
16261,14130
16251,14119
16243,14100
16239,14073
16237,14036
16236,13990
16236,13888
16164,13888
16164,14203
16200,14203
16222,14203
16233,14199
16236,14194
16238,14188
16246,14189
16261,14197
16296,14208
16333,14208
16368,14195
16385,14185
16397,14175
16407,14161
16413,14143
16417,14119
16420,14087
16420,14044
16421,14011
16421,13888
16355,13888
16355,13990
" /> 
<polyline style="fill-rule:evenodd;"
points="15714,13890
15676,13907
15664,13914
15649,13927
15639,13936
15638,13939
15642,13946
15654,13958
15664,13966
15691,13987
15712,13970
15728,13958
15743,13954
15761,13955
15790,13962
15810,13977
15822,14001
15827,14036
15827,14036
15827,14074
15819,14102
15805,14122
15795,14128
15769,14136
15740,14136
15716,14128
15710,14125
15695,14115
15684,14113
15672,14120
15658,14134
15637,14156
15661,14175
15697,14198
15739,14208
15782,14208
15811,14200
15844,14182
15871,14154
15883,14134
15893,14106
15898,14070
15898,14030
15893,13993
15883,13961
15882,13958
15860,13926
15829,13903
15793,13889
15754,13885
15714,13890
" /> 
<polyline style="fill-rule:evenodd;"
points="15473,13887
15457,13891
15424,13906
15397,13928
15378,13956
15375,13962
15371,13978
15369,14002
15368,14026
15368,14072
15463,14072
15503,14072
15530,14073
15548,14075
15557,14080
15559,14087
15556,14098
15549,14110
15532,14131
15508,14142
15478,14142
15445,14130
15416,14116
15392,14135
15367,14154
15390,14175
15420,14195
15457,14207
15497,14210
15536,14204
15542,14202
15576,14184
15601,14158
15619,14122
15628,14076
15628,14075
15629,14024
15626,14006
15559,14006
15553,14009
15536,14011
15511,14012
15496,14013
15467,14013
15449,14012
15439,14010
15436,14006
15437,14000
15437,13998
15449,13976
15468,13958
15484,13951
15506,13951
15528,13961
15546,13977
15557,13996
15559,14006
15626,14006
15621,13980
15604,13943
15580,13914
15549,13894
15514,13885
15473,13887
" /> 
<polyline style="fill-rule:evenodd;"
points="17269,13893
17253,13901
17237,13912
17225,13925
17216,13942
17210,13964
17206,13993
17204,14032
17204,14081
17204,14087
17203,14203
17276,14203
17276,14096
17276,14056
17276,14027
17277,14007
17279,13993
17282,13984
17287,13978
17293,13971
17316,13956
17340,13954
17363,13963
17372,13970
17377,13976
17382,13983
17385,13992
17386,14007
17387,14028
17388,14058
17388,14095
17388,14203
17460,14203
17460,13888
17424,13888
17402,13889
17391,13892
17388,13898
17388,13898
17386,13904
17379,13903
17366,13896
17336,13887
17302,13886
17269,13893
" /> 
<polyline style="fill-rule:evenodd;"
points="15933,13887
15910,13894
15896,13903
15891,13910
15892,13918
15901,13931
15908,13940
15923,13957
15934,13963
15943,13963
15971,13956
15992,13956
16009,13964
16014,13969
16032,13986
16032,14203
16105,14203
16105,13888
16069,13888
16047,13889
16036,13892
16032,13898
16032,13898
16031,13904
16024,13903
16014,13899
15994,13890
15978,13885
15958,13884
15933,13887
" /> 
<polyline style="fill-rule:evenodd;"
points="16677,11707
16648,11864
16428,11955
16296,11865
16259,11840
16226,11818
16198,11800
16176,11786
16163,11778
16159,11776
16153,11780
16139,11793
16119,11812
16095,11835
16068,11862
16040,11891
16012,11919
15986,11946
15964,11969
15947,11988
15936,12001
15934,12005
15937,12013
15947,12029
15963,12054
15983,12084
16006,12118
16019,12138
16044,12174
16065,12206
16083,12233
16096,12254
16104,12266
16105,12268
16102,12276
16096,12293
16086,12317
16073,12346
16060,12378
16047,12410
16034,12439
16023,12464
16015,12482
16010,12491
16010,12491
16004,12493
15986,12496
15959,12502
15924,12508
15884,12516
15861,12520
15818,12528
15780,12536
15747,12543
15722,12549
15708,12553
15705,12554
15702,12563
15700,12582
15698,12610
15697,12645
15696,12683
15696,12723
15697,12763
15698,12800
15699,12831
15701,12856
15704,12870
15705,12873
15715,12877
15734,12882
15762,12888
15794,12895
15806,12897
15861,12907
15904,12915
15937,12922
15962,12927
15979,12931
15991,12934
15998,12938
16002,12941
16003,12941
16009,12951
16018,12971
16029,12997
16042,13028
16055,13061
16067,13094
16078,13125
16087,13151
16093,13170
16094,13179
16094,13179
16089,13187
16078,13203
16061,13227
16041,13257
16018,13291
16012,13300
15988,13335
15968,13366
15951,13393
15939,13413
15934,13425
15934,13426
15938,13434
15951,13448
15970,13469
15994,13494
16021,13521
16049,13549
16078,13577
16105,13602
16128,13624
16147,13640
16159,13649
16162,13651
16170,13647
16186,13638
16207,13624
16224,13613
16254,13592
16289,13568
16325,13544
16344,13531
16408,13487
16463,13516
16487,13529
16509,13539
16523,13545
16526,13546
16531,13540
16539,13523
16551,13497
16567,13464
16584,13425
16603,13381
16623,13333
16644,13285
16664,13236
16684,13189
16701,13145
16717,13105
16730,13072
16739,13046
16745,13029
16746,13024
16739,13016
16724,13005
16704,12991
16703,12990
16652,12949
16610,12901
16579,12848
16559,12791
16550,12732
16552,12673
16565,12614
16591,12557
16599,12545
16638,12495
16684,12455
16736,12425
16792,12405
16850,12396
16909,12397
16967,12409
17022,12433
17073,12467
17089,12481
17130,12525
17159,12571
17179,12623
17190,12675
17193,12732
17184,12791
17164,12847
17133,12900
17093,12947
17045,12986
17039,12990
17019,13004
17004,13016
16997,13024
16997,13024
16998,13032
17004,13051
17015,13078
17028,13113
17044,13153
17062,13198
17082,13246
17103,13294
17123,13343
17143,13389
17162,13433
17179,13471
17194,13503
17205,13527
17213,13542
17216,13546
17226,13543
17244,13535
17267,13523
17280,13516
17334,13487
17399,13531
17432,13553
17468,13578
17502,13601
17519,13613
17543,13629
17563,13641
17577,13649
17581,13651
17588,13646
17602,13634
17623,13615
17650,13591
17680,13562
17699,13544
17732,13511
17761,13482
17784,13457
17800,13439
17808,13428
17809,13425
17805,13416
17795,13399
17780,13374
17760,13344
17737,13310
17731,13300
17707,13266
17686,13235
17669,13209
17656,13190
17649,13180
17648,13179
17649,13171
17655,13153
17663,13128
17674,13097
17686,13064
17699,13031
17712,13000
17724,12973
17733,12953
17739,12942
17740,12941
17744,12938
17750,12935
17761,12932
17777,12928
17800,12923
17832,12917
17873,12909
17925,12899
17937,12897
17971,12891
18000,12884
18022,12879
18035,12874
18037,12873
18040,12865
18042,12845
18044,12817
18045,12782
18046,12744
18046,12704
18046,12664
18045,12627
18043,12596
18041,12571
18039,12557
18037,12554
18029,12551
18009,12546
17980,12540
17945,12532
17904,12524
17882,12520
17839,12512
17802,12505
17770,12499
17747,12494
17734,12492
17732,12491
17729,12484
17721,12467
17710,12443
17698,12414
17684,12383
17671,12351
17658,12321
17648,12296
17641,12277
17638,12269
17638,12268
17641,12261
17651,12245
17667,12221
17687,12191
17710,12157
17723,12138
17748,12102
17769,12069
17787,12042
17801,12020
17808,12008
17809,12005
17804,11998
17792,11984
17773,11964
17750,11939
17724,11912
17696,11883
17668,11855
17641,11829
17618,11806
17599,11789
17587,11778
17583,11776
17576,11779
17560,11789
17537,11805
17507,11825
17472,11848
17446,11865
17314,11955
17205,11910
17095,11864
17065,11707
17035,11549
16707,11549
16677,11707
" /> 
</g>
<g style="fill:#000000; fill-opacity:1.0; 
stroke:#000000; stroke-width:3.93701; stroke-opacity:1; 
stroke-linecap:round; stroke-linejoin:round;">
</g>
<g style="fill:#840000; fill-opacity:1.0; 
stroke:#840000; stroke-width:3.93701; stroke-opacity:1; 
stroke-linecap:round; stroke-linejoin:round;">
</g>
<g style="fill:#840000; fill-opacity:1.0; 
stroke:#840000; stroke-width:0; stroke-opacity:1; 
stroke-linecap:round; stroke-linejoin:round;">
<circle cx="16875" cy="9375" r="944.882" /> 
</g>
<g style="fill:#840000; fill-opacity:1.0; 
stroke:#840000; stroke-width:39.3701; stroke-opacity:1; 
stroke-linecap:round; stroke-linejoin:round;">
</g>
<g style="fill:#840000; fill-opacity:1.0; 
stroke:#840000; stroke-width:0; stroke-opacity:1; 
stroke-linecap:round; stroke-linejoin:round;">
<circle cx="9375" cy="28125" r="944.882" /> 
</g>
<g style="fill:#840000; fill-opacity:1.0; 
stroke:#840000; stroke-width:39.3701; stroke-opacity:1; 
stroke-linecap:round; stroke-linejoin:round;">
</g>
<g style="fill:#840000; fill-opacity:1.0; 
stroke:#840000; stroke-width:0; stroke-opacity:1; 
stroke-linecap:round; stroke-linejoin:round;">
<circle cx="24375" cy="28125" r="944.882" /> 
</g>
<g style="fill:#840000; fill-opacity:1.0; 
stroke:#840000; stroke-width:39.3701; stroke-opacity:1; 
stroke-linecap:round; stroke-linejoin:round;">
</g>
<g style="fill:#000000; fill-opacity:1.0; 
stroke:#000000; stroke-width:39.3701; stroke-opacity:1; 
stroke-linecap:round; stroke-linejoin:round;">
</g>
<g style="fill:#840000; fill-opacity:1.0; 
stroke:#840000; stroke-width:39.3701; stroke-opacity:1; 
stroke-linecap:round; stroke-linejoin:round;">
</g>
<g style="fill:#840000; fill-opacity:1.0; 
stroke:#840000; stroke-width:0; stroke-opacity:1; 
stroke-linecap:round; stroke-linejoin:round;">
<circle cx="16875" cy="9375" r="866.142" /> 
</g>
<g style="fill:#840000; fill-opacity:1.0; 
stroke:#840000; stroke-width:39.3701; stroke-opacity:1; 
stroke-linecap:round; stroke-linejoin:round;">
</g>
<g style="fill:#840000; fill-opacity:1.0; 
stroke:#840000; stroke-width:0; stroke-opacity:1; 
stroke-linecap:round; stroke-linejoin:round;">
<circle cx="9375" cy="28125" r="866.142" /> 
</g>
<g style="fill:#840000; fill-opacity:1.0; 
stroke:#840000; stroke-width:39.3701; stroke-opacity:1; 
stroke-linecap:round; stroke-linejoin:round;">
</g>
<g style="fill:#840000; fill-opacity:1.0; 
stroke:#840000; stroke-width:0; stroke-opacity:1; 
stroke-linecap:round; stroke-linejoin:round;">
<circle cx="24375" cy="28125" r="866.142" /> 
</g>
<g style="fill:#840000; fill-opacity:1.0; 
stroke:#840000; stroke-width:39.3701; stroke-opacity:1; 
stroke-linecap:round; stroke-linejoin:round;">
</g>
<g style="fill:#C2C2C2; fill-opacity:1.0; 
stroke:#C2C2C2; stroke-width:39.3701; stroke-opacity:1; 
stroke-linecap:round; stroke-linejoin:round;">
</g>
<g style="fill:#C2C2C2; fill-opacity:1.0; 
stroke:#C2C2C2; stroke-width:0; stroke-opacity:1; 
stroke-linecap:round; stroke-linejoin:round;">
<circle cx="2812.5" cy="2562.5" r="157.48" /> 
</g>
<g style="fill:#C2C2C2; fill-opacity:1.0; 
stroke:#C2C2C2; stroke-width:39.3701; stroke-opacity:1; 
stroke-linecap:round; stroke-linejoin:round;">
</g>
<g style="fill:#C2C2C2; fill-opacity:1.0; 
stroke:#C2C2C2; stroke-width:0; stroke-opacity:1; 
stroke-linecap:round; stroke-linejoin:round;">
<circle cx="16812.5" cy="2562.5" r="157.48" /> 
</g>
<g style="fill:#C2C2C2; fill-opacity:1.0; 
stroke:#C2C2C2; stroke-width:39.3701; stroke-opacity:1; 
stroke-linecap:round; stroke-linejoin:round;">
</g>
<g style="fill:#C2C2C2; fill-opacity:1.0; 
stroke:#C2C2C2; stroke-width:0; stroke-opacity:1; 
stroke-linecap:round; stroke-linejoin:round;">
<circle cx="30812.5" cy="2562.5" r="157.48" /> 
</g>
<g style="fill:#C2C2C2; fill-opacity:1.0; 
stroke:#C2C2C2; stroke-width:39.3701; stroke-opacity:1; 
stroke-linecap:round; stroke-linejoin:round;">
</g>
<g style="fill:#C2C2C2; fill-opacity:1.0; 
stroke:#C2C2C2; stroke-width:0; stroke-opacity:1; 
stroke-linecap:round; stroke-linejoin:round;">
<circle cx="30812.5" cy="31562.5" r="157.48" /> 
</g>
<g style="fill:#C2C2C2; fill-opacity:1.0; 
stroke:#C2C2C2; stroke-width:39.3701; stroke-opacity:1; 
stroke-linecap:round; stroke-linejoin:round;">
</g>
<g style="fill:#C2C2C2; fill-opacity:1.0; 
stroke:#C2C2C2; stroke-width:0; stroke-opacity:1; 
stroke-linecap:round; stroke-linejoin:round;">
<circle cx="16812.5" cy="31562.5" r="157.48" /> 
</g>
<g style="fill:#C2C2C2; fill-opacity:1.0; 
stroke:#C2C2C2; stroke-width:39.3701; stroke-opacity:1; 
stroke-linecap:round; stroke-linejoin:round;">
</g>
<g style="fill:#C2C2C2; fill-opacity:1.0; 
stroke:#C2C2C2; stroke-width:0; stroke-opacity:1; 
stroke-linecap:round; stroke-linejoin:round;">
<circle cx="2812.5" cy="31562.5" r="157.48" /> 
</g>
<g style="fill:#C2C2C2; fill-opacity:1.0; 
stroke:#C2C2C2; stroke-width:39.3701; stroke-opacity:1; 
stroke-linecap:round; stroke-linejoin:round;">
</g>
<g style="fill:#C2C2C2; fill-opacity:1.0; 
stroke:#C2C2C2; stroke-width:0; stroke-opacity:1; 
stroke-linecap:round; stroke-linejoin:round;">
<circle cx="30937.5" cy="16875" r="157.48" /> 
</g>
<g style="fill:#C2C2C2; fill-opacity:1.0; 
stroke:#C2C2C2; stroke-width:39.3701; stroke-opacity:1; 
stroke-linecap:round; stroke-linejoin:round;">
</g>
<g style="fill:#C2C2C2; fill-opacity:1.0; 
stroke:#C2C2C2; stroke-width:0; stroke-opacity:1; 
stroke-linecap:round; stroke-linejoin:round;">
<circle cx="2812.5" cy="16875" r="157.48" /> 
</g>
<g style="fill:#C2C2C2; fill-opacity:1.0; 
stroke:#C2C2C2; stroke-width:39.3701; stroke-opacity:1; 
stroke-linecap:round; stroke-linejoin:round;">
</g>
<g style="fill:#008400; fill-opacity:1.0; 
stroke:#008400; stroke-width:39.3701; stroke-opacity:1; 
stroke-linecap:round; stroke-linejoin:round;">
</g>
<g style="fill:#008400; fill-opacity:1.0; 
stroke:#008400; stroke-width:98.4252; stroke-opacity:1; 
stroke-linecap:round; stroke-linejoin:round;">
</g>
<g style="fill:#008400; fill-opacity:0.0; 
stroke:#008400; stroke-width:98.4252; stroke-opacity:1; 
stroke-linecap:round; stroke-linejoin:round;">
<path d="M2812 2562
L2812 2562
" />
<path d="M16812 2562
L2812 2562
" />
<path d="M30937 2687
L30812 2562
" />
<path d="M30937 16875
L30937 2687
" />
<path d="M16812 31562
L30812 31562
" />
<path d="M2812 16875
L2812 31562
" />
</g>
<g style="fill:#008400; fill-opacity:1.0; 
stroke:#008400; stroke-width:100; stroke-opacity:1; 
stroke-linecap:round; stroke-linejoin:round;">
<polyline style="fill-rule:evenodd;"
points="31723,1962
31762,1987
31787,2026
31802,2098
31802,31651
31787,31723
31762,31762
31723,31787
31651,31802
2098,31802
2026,31787
1987,31762
1962,31723
1947,31651
1947,28125
4567,28125
4648,28529
4877,28872
5220,29101
5625,29182
6029,29101
6372,28872
6601,28529
6682,28125
8672,28125
8725,28393
8878,28621
9106,28774
9375,28827
9643,28774
9871,28621
10024,28393
10077,28125
15817,28125
15898,28529
16127,28872
16470,29101
16875,29182
17279,29101
17622,28872
17851,28529
17932,28125
23672,28125
23725,28393
23878,28621
24106,28774
24375,28827
24643,28774
24871,28621
25024,28393
25077,28125
27067,28125
27148,28529
27377,28872
27720,29101
28125,29182
28529,29101
28872,28872
29101,28529
29182,28125
29101,27720
28872,27377
28529,27148
28125,27067
27720,27148
27377,27377
27148,27720
27067,28125
25077,28125
25024,27856
24871,27628
24643,27475
24375,27422
24106,27475
23878,27628
23725,27856
23672,28125
17932,28125
17851,27720
17622,27377
17279,27148
16875,27067
16470,27148
16127,27377
15898,27720
15817,28125
10077,28125
10024,27856
9871,27628
9643,27475
9375,27422
9106,27475
8878,27628
8725,27856
8672,28125
6682,28125
6601,27720
6372,27377
6029,27148
5625,27067
5220,27148
4877,27377
4648,27720
4567,28125
1947,28125
1947,20625
4567,20625
4648,21029
4877,21372
5220,21601
5625,21682
6029,21601
6372,21372
6601,21029
6682,20625
12067,20625
12148,21029
12377,21372
12720,21601
13125,21682
13529,21601
13872,21372
14101,21029
14182,20625
19567,20625
19648,21029
19877,21372
20220,21601
20625,21682
21029,21601
21372,21372
21601,21029
21682,20625
27067,20625
27148,21029
27377,21372
27720,21601
28125,21682
28529,21601
28872,21372
29101,21029
29182,20625
29101,20220
28872,19877
28529,19648
28125,19567
27720,19648
27377,19877
27148,20220
27067,20625
21682,20625
21601,20220
21372,19877
21029,19648
20625,19567
20220,19648
19877,19877
19648,20220
19567,20625
14182,20625
14101,20220
13872,19877
13529,19648
13125,19567
12720,19648
12377,19877
12148,20220
12067,20625
6682,20625
6601,20220
6372,19877
6029,19648
5625,19567
5220,19648
4877,19877
4648,20220
4567,20625
1947,20625
1947,13125
4567,13125
4648,13529
4877,13872
5220,14101
5625,14182
6029,14101
6372,13872
6601,13529
6682,13125
12067,13125
12148,13529
12377,13872
12720,14101
13125,14182
13529,14101
13872,13872
14101,13529
14182,13125
19567,13125
19648,13529
19877,13872
20220,14101
20625,14182
21029,14101
21372,13872
21601,13529
21682,13125
27067,13125
27148,13529
27377,13872
27720,14101
28125,14182
28529,14101
28872,13872
29101,13529
29182,13125
29101,12720
28872,12377
28529,12148
28125,12067
27720,12148
27377,12377
27148,12720
27067,13125
21682,13125
21601,12720
21372,12377
21029,12148
20625,12067
20220,12148
19877,12377
19648,12720
19567,13125
14182,13125
14101,12720
13872,12377
13529,12148
13125,12067
12720,12148
12377,12377
12148,12720
12067,13125
6682,13125
6601,12720
6372,12377
6029,12148
5625,12067
5220,12148
4877,12377
4648,12720
4567,13125
1947,13125
1947,9375
16172,9375
16225,9643
16378,9871
16606,10024
16875,10077
17143,10024
17371,9871
17524,9643
17577,9375
17524,9106
17371,8878
17143,8725
16875,8672
16606,8725
16378,8878
16225,9106
16172,9375
1947,9375
1947,5625
4567,5625
4648,6029
4877,6372
5220,6601
5625,6682
6029,6601
6372,6372
6601,6029
6682,5625
12067,5625
12148,6029
12377,6372
12720,6601
13125,6682
13529,6601
13872,6372
14101,6029
14182,5625
19567,5625
19648,6029
19877,6372
20220,6601
20625,6682
21029,6601
21372,6372
21601,6029
21682,5625
27067,5625
27148,6029
27377,6372
27720,6601
28125,6682
28529,6601
28872,6372
29101,6029
29182,5625
29101,5220
28872,4877
28529,4648
28125,4567
27720,4648
27377,4877
27148,5220
27067,5625
21682,5625
21601,5220
21372,4877
21029,4648
20625,4567
20220,4648
19877,4877
19648,5220
19567,5625
14182,5625
14101,5220
13872,4877
13529,4648
13125,4567
12720,4648
12377,4877
12148,5220
12067,5625
6682,5625
6601,5220
6372,4877
6029,4648
5625,4567
5220,4648
4877,4877
4648,5220
4567,5625
1947,5625
1947,2098
1962,2026
1987,1987
2026,1962
2098,1947
31651,1947
31723,1962
" /> 
<polyline style="fill-rule:evenodd;"
points="24437,27974
24490,28009
24525,28062
24538,28125
24525,28187
24490,28240
24437,28275
24375,28288
24312,28275
24259,28240
24224,28187
24211,28125
24224,28062
24259,28009
24312,27974
24375,27961
24437,27974
" /> 
<polyline style="fill-rule:evenodd;"
points="9437,27974
9490,28009
9525,28062
9538,28125
9525,28187
9490,28240
9437,28275
9375,28288
9312,28275
9259,28240
9224,28187
9211,28125
9224,28062
9259,28009
9312,27974
9375,27961
9437,27974
" /> 
<polyline style="fill-rule:evenodd;"
points="16937,9224
16990,9259
17025,9312
17038,9375
17025,9437
16990,9490
16937,9525
16875,9538
16812,9525
16759,9490
16724,9437
16711,9375
16724,9312
16759,9259
16812,9224
16875,9211
16937,9224
" /> 
</g>
<g style="fill:#FFFFFF; fill-opacity:1.0; 
stroke:#FFFFFF; stroke-width:100; stroke-opacity:1; 
stroke-linecap:round; stroke-linejoin:round;">
</g>
<g style="fill:#FFFFFF; fill-opacity:1.0; 
stroke:#FFFFFF; stroke-width:0; stroke-opacity:1; 
stroke-linecap:round; stroke-linejoin:round;">
<circle cx="2812.5" cy="2562.5" r="78.7402" /> 
</g>
<g style="fill:#FFFFFF; fill-opacity:1.0; 
stroke:#FFFFFF; stroke-width:39.3701; stroke-opacity:1; 
stroke-linecap:round; stroke-linejoin:round;">
</g>
<g style="fill:#FFFFFF; fill-opacity:1.0; 
stroke:#FFFFFF; stroke-width:0; stroke-opacity:1; 
stroke-linecap:round; stroke-linejoin:round;">
<circle cx="16812.5" cy="2562.5" r="78.7402" /> 
</g>
<g style="fill:#FFFFFF; fill-opacity:1.0; 
stroke:#FFFFFF; stroke-width:39.3701; stroke-opacity:1; 
stroke-linecap:round; stroke-linejoin:round;">
</g>
<g style="fill:#FFFFFF; fill-opacity:1.0; 
stroke:#FFFFFF; stroke-width:0; stroke-opacity:1; 
stroke-linecap:round; stroke-linejoin:round;">
<circle cx="30812.5" cy="2562.5" r="78.7402" /> 
</g>
<g style="fill:#FFFFFF; fill-opacity:1.0; 
stroke:#FFFFFF; stroke-width:39.3701; stroke-opacity:1; 
stroke-linecap:round; stroke-linejoin:round;">
</g>
<g style="fill:#FFFFFF; fill-opacity:1.0; 
stroke:#FFFFFF; stroke-width:0; stroke-opacity:1; 
stroke-linecap:round; stroke-linejoin:round;">
<circle cx="30812.5" cy="31562.5" r="78.7402" /> 
</g>
<g style="fill:#FFFFFF; fill-opacity:1.0; 
stroke:#FFFFFF; stroke-width:39.3701; stroke-opacity:1; 
stroke-linecap:round; stroke-linejoin:round;">
</g>
<g style="fill:#FFFFFF; fill-opacity:1.0; 
stroke:#FFFFFF; stroke-width:0; stroke-opacity:1; 
stroke-linecap:round; stroke-linejoin:round;">
<circle cx="16812.5" cy="31562.5" r="78.7402" /> 
</g>
<g style="fill:#FFFFFF; fill-opacity:1.0; 
stroke:#FFFFFF; stroke-width:39.3701; stroke-opacity:1; 
stroke-linecap:round; stroke-linejoin:round;">
</g>
<g style="fill:#FFFFFF; fill-opacity:1.0; 
stroke:#FFFFFF; stroke-width:0; stroke-opacity:1; 
stroke-linecap:round; stroke-linejoin:round;">
<circle cx="2812.5" cy="31562.5" r="78.7402" /> 
</g>
<g style="fill:#FFFFFF; fill-opacity:1.0; 
stroke:#FFFFFF; stroke-width:39.3701; stroke-opacity:1; 
stroke-linecap:round; stroke-linejoin:round;">
</g>
<g style="fill:#FFFFFF; fill-opacity:1.0; 
stroke:#FFFFFF; stroke-width:0; stroke-opacity:1; 
stroke-linecap:round; stroke-linejoin:round;">
<circle cx="30937.5" cy="16875" r="78.7402" /> 
</g>
<g style="fill:#FFFFFF; fill-opacity:1.0; 
stroke:#FFFFFF; stroke-width:39.3701; stroke-opacity:1; 
stroke-linecap:round; stroke-linejoin:round;">
</g>
<g style="fill:#FFFFFF; fill-opacity:1.0; 
stroke:#FFFFFF; stroke-width:0; stroke-opacity:1; 
stroke-linecap:round; stroke-linejoin:round;">
<circle cx="2812.5" cy="16875" r="78.7402" /> 
</g>
<g style="fill:#FFFFFF; fill-opacity:1.0; 
stroke:#FFFFFF; stroke-width:39.3701; stroke-opacity:1; 
stroke-linecap:round; stroke-linejoin:round;">
</g>
<g style="fill:#FFFFFF; fill-opacity:1.0; 
stroke:#FFFFFF; stroke-width:0; stroke-opacity:1; 
stroke-linecap:round; stroke-linejoin:round;">
<circle cx="16875" cy="9375" r="433.071" /> 
</g>
<g style="fill:#FFFFFF; fill-opacity:1.0; 
stroke:#FFFFFF; stroke-width:39.3701; stroke-opacity:1; 
stroke-linecap:round; stroke-linejoin:round;">
</g>
<g style="fill:#FFFFFF; fill-opacity:1.0; 
stroke:#FFFFFF; stroke-width:0; stroke-opacity:1; 
stroke-linecap:round; stroke-linejoin:round;">
<circle cx="9375" cy="28125" r="433.071" /> 
</g>
<g style="fill:#FFFFFF; fill-opacity:1.0; 
stroke:#FFFFFF; stroke-width:39.3701; stroke-opacity:1; 
stroke-linecap:round; stroke-linejoin:round;">
</g>
<g style="fill:#FFFFFF; fill-opacity:1.0; 
stroke:#FFFFFF; stroke-width:0; stroke-opacity:1; 
stroke-linecap:round; stroke-linejoin:round;">
<circle cx="24375" cy="28125" r="433.071" /> 
</g>
<g style="fill:#FFFFFF; fill-opacity:1.0; 
stroke:#FFFFFF; stroke-width:39.3701; stroke-opacity:1; 
stroke-linecap:round; stroke-linejoin:round;">
</g>
<g style="fill:#000000; fill-opacity:1.0; 
stroke:#000000; stroke-width:39.3701; stroke-opacity:1; 
stroke-linecap:round; stroke-linejoin:round;">
</g>
<g style="fill:#840000; fill-opacity:1.0; 
stroke:#840000; stroke-width:39.3701; stroke-opacity:1; 
stroke-linecap:round; stroke-linejoin:round;">
</g>
<g style="fill:#840000; fill-opacity:1.0; 
stroke:#840000; stroke-width:0; stroke-opacity:1; 
stroke-linecap:round; stroke-linejoin:round;">
<circle cx="16875" cy="9375" r="866.142" /> 
</g>
<g style="fill:#840000; fill-opacity:1.0; 
stroke:#840000; stroke-width:39.3701; stroke-opacity:1; 
stroke-linecap:round; stroke-linejoin:round;">
</g>
<g style="fill:#840000; fill-opacity:1.0; 
stroke:#840000; stroke-width:0; stroke-opacity:1; 
stroke-linecap:round; stroke-linejoin:round;">
<circle cx="9375" cy="28125" r="866.142" /> 
</g>
<g style="fill:#840000; fill-opacity:1.0; 
stroke:#840000; stroke-width:39.3701; stroke-opacity:1; 
stroke-linecap:round; stroke-linejoin:round;">
</g>
<g style="fill:#840000; fill-opacity:1.0; 
stroke:#840000; stroke-width:0; stroke-opacity:1; 
stroke-linecap:round; stroke-linejoin:round;">
<circle cx="24375" cy="28125" r="866.142" /> 
</g>
<g style="fill:#840000; fill-opacity:1.0; 
stroke:#840000; stroke-width:39.3701; stroke-opacity:1; 
stroke-linecap:round; stroke-linejoin:round;">
</g>
<g style="fill:#C2C2C2; fill-opacity:1.0; 
stroke:#C2C2C2; stroke-width:39.3701; stroke-opacity:1; 
stroke-linecap:round; stroke-linejoin:round;">
</g>
<g style="fill:#C2C2C2; fill-opacity:1.0; 
stroke:#C2C2C2; stroke-width:0; stroke-opacity:1; 
stroke-linecap:round; stroke-linejoin:round;">
<circle cx="2812.5" cy="2562.5" r="157.48" /> 
</g>
<g style="fill:#C2C2C2; fill-opacity:1.0; 
stroke:#C2C2C2; stroke-width:39.3701; stroke-opacity:1; 
stroke-linecap:round; stroke-linejoin:round;">
</g>
<g style="fill:#C2C2C2; fill-opacity:1.0; 
stroke:#C2C2C2; stroke-width:0; stroke-opacity:1; 
stroke-linecap:round; stroke-linejoin:round;">
<circle cx="16812.5" cy="2562.5" r="157.48" /> 
</g>
<g style="fill:#C2C2C2; fill-opacity:1.0; 
stroke:#C2C2C2; stroke-width:39.3701; stroke-opacity:1; 
stroke-linecap:round; stroke-linejoin:round;">
</g>
<g style="fill:#C2C2C2; fill-opacity:1.0; 
stroke:#C2C2C2; stroke-width:0; stroke-opacity:1; 
stroke-linecap:round; stroke-linejoin:round;">
<circle cx="30812.5" cy="2562.5" r="157.48" /> 
</g>
<g style="fill:#C2C2C2; fill-opacity:1.0; 
stroke:#C2C2C2; stroke-width:39.3701; stroke-opacity:1; 
stroke-linecap:round; stroke-linejoin:round;">
</g>
<g style="fill:#C2C2C2; fill-opacity:1.0; 
stroke:#C2C2C2; stroke-width:0; stroke-opacity:1; 
stroke-linecap:round; stroke-linejoin:round;">
<circle cx="30812.5" cy="31562.5" r="157.48" /> 
</g>
<g style="fill:#C2C2C2; fill-opacity:1.0; 
stroke:#C2C2C2; stroke-width:39.3701; stroke-opacity:1; 
stroke-linecap:round; stroke-linejoin:round;">
</g>
<g style="fill:#C2C2C2; fill-opacity:1.0; 
stroke:#C2C2C2; stroke-width:0; stroke-opacity:1; 
stroke-linecap:round; stroke-linejoin:round;">
<circle cx="16812.5" cy="31562.5" r="157.48" /> 
</g>
<g style="fill:#C2C2C2; fill-opacity:1.0; 
stroke:#C2C2C2; stroke-width:39.3701; stroke-opacity:1; 
stroke-linecap:round; stroke-linejoin:round;">
</g>
<g style="fill:#C2C2C2; fill-opacity:1.0; 
stroke:#C2C2C2; stroke-width:0; stroke-opacity:1; 
stroke-linecap:round; stroke-linejoin:round;">
<circle cx="2812.5" cy="31562.5" r="157.48" /> 
</g>
<g style="fill:#C2C2C2; fill-opacity:1.0; 
stroke:#C2C2C2; stroke-width:39.3701; stroke-opacity:1; 
stroke-linecap:round; stroke-linejoin:round;">
</g>
<g style="fill:#C2C2C2; fill-opacity:1.0; 
stroke:#C2C2C2; stroke-width:0; stroke-opacity:1; 
stroke-linecap:round; stroke-linejoin:round;">
<circle cx="30937.5" cy="16875" r="157.48" /> 
</g>
<g style="fill:#C2C2C2; fill-opacity:1.0; 
stroke:#C2C2C2; stroke-width:39.3701; stroke-opacity:1; 
stroke-linecap:round; stroke-linejoin:round;">
</g>
<g style="fill:#C2C2C2; fill-opacity:1.0; 
stroke:#C2C2C2; stroke-width:0; stroke-opacity:1; 
stroke-linecap:round; stroke-linejoin:round;">
<circle cx="2812.5" cy="16875" r="157.48" /> 
</g>
<g style="fill:#C2C2C2; fill-opacity:1.0; 
stroke:#C2C2C2; stroke-width:39.3701; stroke-opacity:1; 
stroke-linecap:round; stroke-linejoin:round;">
</g>
<g style="fill:#840000; fill-opacity:1.0; 
stroke:#840000; stroke-width:39.3701; stroke-opacity:1; 
stroke-linecap:round; stroke-linejoin:round;">
</g>
<g style="fill:#840000; fill-opacity:1.0; 
stroke:#840000; stroke-width:98.4252; stroke-opacity:1; 
stroke-linecap:round; stroke-linejoin:round;">
</g>
<g style="fill:#840000; fill-opacity:0.0; 
stroke:#840000; stroke-width:98.4252; stroke-opacity:1; 
stroke-linecap:round; stroke-linejoin:round;">
<path d="M16875 23437
L16875 21562
" />
<path d="M16875 9375
L16875 21562
" />
<path d="M2812 16875
L2812 2562
" />
<path d="M30812 2562
L16812 2562
" />
<path d="M16875 9375
L16875 2625
" />
<path d="M16812 2562
L16812 2562
" />
<path d="M16875 2625
L16812 2562
" />
<path d="M30937 31437
L30812 31562
" />
<path d="M30937 30937
L30937 31437
" />
<path d="M30937 16875
L30937 30937
" />
<path d="M2812 31562
L16812 31562
" />
<path d="M21562 28125
L16875 23437
" />
<path d="M24375 28125
L21562 28125
" />
<path d="M16875 23437
L12187 28125
" />
<path d="M12187 28125
L9375 28125
" />
</g>
<g style="fill:#840000; fill-opacity:1.0; 
stroke:#840000; stroke-width:100; stroke-opacity:1; 
stroke-linecap:round; stroke-linejoin:round;">
<polyline style="fill-rule:evenodd;"
points="31723,1962
31762,1987
31787,2026
31802,2098
31802,31651
31787,31723
31762,31762
31723,31787
31651,31802
2098,31802
2026,31787
1987,31762
1962,31723
1947,31651
1947,26565
3262,26565
3512,30815
3516,30831
3527,30847
3543,30858
3562,30862
7312,30862
7331,30858
7347,30847
7847,30347
7860,30326
7862,30307
7762,29312
8262,29312
8262,30812
8266,30831
8277,30847
8293,30858
8312,30862
14312,30862
14331,30858
14347,30847
14358,30831
14362,30812
14362,29312
14358,29293
14347,29277
14331,29266
14312,29262
8312,29262
8293,29266
8277,29277
8266,29293
8262,29312
7762,29312
7643,28125
8672,28125
8725,28393
8878,28621
9106,28774
9375,28827
9643,28774
9871,28621
10024,28393
10077,28125
10024,27856
9871,27628
9643,27475
9375,27422
9106,27475
8878,27628
8725,27856
8672,28125
7643,28125
7488,26565
14512,26565
14762,30815
14766,30831
14777,30847
14793,30858
14812,30862
18562,30862
18581,30858
18597,30847
19097,30347
19110,30326
19112,30307
19062,29812
20012,29812
20012,30812
20016,30831
20027,30847
20043,30858
20062,30862
24812,30862
24831,30858
24847,30847
24858,30831
24862,30812
24862,29862
24858,29843
24848,29827
24832,29816
24813,29812
20063,29762
20043,29766
20027,29777
20016,29793
20012,29812
19062,29812
18893,28125
23672,28125
23725,28393
23878,28621
24106,28774
24375,28827
24643,28774
24871,28621
25024,28393
25077,28125
25024,27856
24871,27628
24643,27475
24375,27422
24106,27475
23878,27628
23725,27856
23672,28125
18893,28125
18612,25307
18608,25293
18597,25277
18581,25266
18562,25262
17312,25262
17291,25266
14541,26516
14525,26529
14515,26546
14512,26565
7488,26565
7362,25307
7358,25293
7347,25277
7331,25266
7312,25262
6062,25262
6041,25266
3291,26516
3275,26529
3265,26546
3262,26565
1947,26565
1947,11565
3262,11565
3512,15815
3516,15831
3527,15847
3543,15858
3562,15862
3762,15862
3762,17812
3766,17831
3777,17847
3793,17858
3812,17862
5831,17862
3291,19016
3275,19029
3265,19046
3262,19065
3512,23315
3516,23331
3527,23347
3543,23358
3562,23362
3762,23362
3762,25312
3766,25331
3777,25347
3793,25358
3812,25362
5562,25362
5581,25358
5597,25347
5608,25331
5612,25312
5612,23362
7312,23362
7331,23358
7347,23347
7847,22847
7860,22826
7862,22807
7488,19065
10762,19065
11012,23315
11016,23331
11027,23347
11043,23358
11062,23362
14812,23362
14831,23358
14847,23347
15347,22847
15360,22826
15362,22807
14988,19065
18262,19065
18512,23315
18516,23331
18527,23347
18543,23358
18562,23362
22312,23362
22331,23358
22347,23347
22847,22847
22860,22826
22862,22807
22487,19062
23762,19062
23762,22312
23766,22331
23777,22347
23793,22358
23812,22362
25062,22362
25081,22358
25097,22347
25108,22331
25112,22312
25112,19062
25108,19043
25097,19027
25081,19016
25062,19012
23812,19012
23793,19016
23777,19027
23766,19043
23762,19062
22487,19062
22362,17807
22358,17793
22347,17777
22331,17766
22312,17762
21062,17762
21041,17766
18291,19016
18275,19029
18265,19046
18262,19065
14988,19065
14862,17807
14858,17793
14847,17777
14831,17766
14812,17762
13562,17762
13541,17766
10791,19016
10775,19029
10765,19046
10762,19065
7488,19065
7367,17862
7562,17862
7581,17858
7597,17847
7608,17831
7612,17812
7612,15812
10262,15812
10262,17812
10266,17831
10277,17847
10293,17858
10312,17862
12312,17862
12331,17858
12347,17847
12358,17831
12362,17812
12362,15862
14812,15862
14831,15858
14847,15847
15347,15347
15360,15326
15362,15307
14862,10307
14858,10293
14847,10277
14831,10266
14812,10262
13562,10262
13541,10266
10791,11516
10775,11529
10765,11546
10762,11565
11009,15762
10312,15762
10293,15766
10277,15777
10266,15793
10262,15812
7612,15812
7608,15793
7597,15777
7581,15766
7562,15762
7433,15762
7847,15347
7860,15326
7862,15307
7362,10307
7358,10293
7347,10277
7331,10266
7312,10262
6062,10262
6041,10266
3291,11516
3275,11529
3265,11546
3262,11565
1947,11565
1947,4065
3262,4065
3512,8315
3516,8331
3527,8347
3543,8358
3562,8362
3762,8362
3762,10312
3766,10331
3777,10347
3793,10358
3812,10362
5562,10362
5581,10358
5597,10347
5608,10331
5612,10312
5612,9375
16172,9375
16225,9643
16378,9871
16606,10024
16875,10077
17143,10024
17371,9871
17524,9643
17577,9375
17524,9106
17371,8878
17143,8725
16875,8672
16606,8725
16378,8878
16225,9106
16172,9375
5612,9375
5612,8362
7312,8362
7331,8358
7347,8347
7847,7847
7860,7826
7862,7807
7488,4065
10762,4065
11012,8315
11016,8331
11027,8347
11043,8358
11062,8362
14812,8362
14831,8358
14847,8347
15347,7847
15360,7826
15362,7807
14988,4065
18262,4065
18512,8315
18516,8331
18527,8347
18543,8358
18562,8362
18762,8362
18762,10312
18766,10331
18777,10347
18793,10358
18812,10362
20831,10362
18291,11516
18275,11529
18265,11546
18262,11565
18512,15815
18516,15831
18527,15847
18543,15858
18562,15862
22312,15862
22331,15858
22347,15847
22847,15347
22860,15326
22862,15307
22367,10362
28331,10362
25791,11516
25775,11529
25765,11546
25762,11565
26012,15815
26016,15831
26027,15847
26043,15858
26062,15862
26262,15862
26262,17812
26266,17831
26277,17847
26293,17858
26312,17862
28331,17862
25791,19016
25775,19029
25765,19046
25762,19065
26012,23315
26016,23331
26027,23347
26043,23358
26062,23362
26262,23362
26262,25312
26266,25331
26277,25347
26293,25358
26312,25362
28331,25362
25791,26516
25775,26529
25765,26546
25762,26565
26012,30815
26016,30831
26027,30847
26043,30858
26062,30862
29812,30862
29831,30858
29847,30847
30347,30347
30360,30326
30362,30307
29867,25362
30062,25362
30081,25358
30097,25347
30108,25331
30112,25312
30112,23312
30108,23293
30097,23277
30081,23266
30062,23262
29933,23262
30347,22847
30360,22826
30362,22807
29867,17862
30062,17862
30081,17858
30097,17847
30108,17831
30112,17812
30112,15812
30108,15793
30097,15777
30081,15766
30062,15762
29933,15762
30347,15347
30360,15326
30362,15307
29867,10362
30062,10362
30081,10358
30097,10347
30108,10331
30112,10312
30112,8312
30108,8293
30097,8277
30081,8266
30062,8262
29933,8262
30347,7847
30360,7826
30362,7807
29862,2807
29858,2793
29847,2777
29831,2766
29812,2762
28562,2762
28541,2766
25791,4016
25775,4029
25765,4046
25762,4065
26009,8262
25362,8262
25362,6562
25358,6543
25347,6527
25331,6516
25312,6512
23312,6512
23293,6516
23277,6527
23266,6543
23262,6562
23262,8262
22433,8262
22847,7847
22860,7826
22862,7807
22362,2807
22358,2793
22347,2777
22331,2766
22312,2762
21062,2762
21041,2766
18291,4016
18275,4029
18265,4046
18262,4065
14988,4065
14862,2807
14858,2793
14847,2777
14831,2766
14812,2762
13562,2762
13541,2766
10791,4016
10775,4029
10765,4046
10762,4065
7488,4065
7362,2807
7358,2793
7347,2777
7331,2766
7312,2762
6062,2762
6041,2766
3291,4016
3275,4029
3265,4046
3262,4065
1947,4065
1947,2098
1962,2026
1987,1987
2026,1962
2098,1947
31651,1947
31723,1962
" /> 
<polyline style="fill-rule:evenodd;"
points="9437,27974
9490,28009
9525,28062
9538,28125
9525,28187
9490,28240
9437,28275
9375,28288
9312,28275
9259,28240
9224,28187
9211,28125
9224,28062
9259,28009
9312,27974
9375,27961
9437,27974
" /> 
<polyline style="fill-rule:evenodd;"
points="24437,27974
24490,28009
24525,28062
24538,28125
24525,28187
24490,28240
24437,28275
24375,28288
24312,28275
24259,28240
24224,28187
24211,28125
24224,28062
24259,28009
24312,27974
24375,27961
24437,27974
" /> 
<polyline style="fill-rule:evenodd;"
points="16937,9224
16990,9259
17025,9312
17038,9375
17025,9437
16990,9490
16937,9525
16875,9538
16812,9525
16759,9490
16724,9437
16711,9375
16724,9312
16759,9259
16812,9224
16875,9211
16937,9224
" /> 
</g>
<g style="fill:#FFFFFF; fill-opacity:1.0; 
stroke:#FFFFFF; stroke-width:100; stroke-opacity:1; 
stroke-linecap:round; stroke-linejoin:round;">
</g>
<g style="fill:#FFFFFF; fill-opacity:1.0; 
stroke:#FFFFFF; stroke-width:0; stroke-opacity:1; 
stroke-linecap:round; stroke-linejoin:round;">
<circle cx="2812.5" cy="2562.5" r="78.7402" /> 
</g>
<g style="fill:#FFFFFF; fill-opacity:1.0; 
stroke:#FFFFFF; stroke-width:39.3701; stroke-opacity:1; 
stroke-linecap:round; stroke-linejoin:round;">
</g>
<g style="fill:#FFFFFF; fill-opacity:1.0; 
stroke:#FFFFFF; stroke-width:0; stroke-opacity:1; 
stroke-linecap:round; stroke-linejoin:round;">
<circle cx="16812.5" cy="2562.5" r="78.7402" /> 
</g>
<g style="fill:#FFFFFF; fill-opacity:1.0; 
stroke:#FFFFFF; stroke-width:39.3701; stroke-opacity:1; 
stroke-linecap:round; stroke-linejoin:round;">
</g>
<g style="fill:#FFFFFF; fill-opacity:1.0; 
stroke:#FFFFFF; stroke-width:0; stroke-opacity:1; 
stroke-linecap:round; stroke-linejoin:round;">
<circle cx="30812.5" cy="2562.5" r="78.7402" /> 
</g>
<g style="fill:#FFFFFF; fill-opacity:1.0; 
stroke:#FFFFFF; stroke-width:39.3701; stroke-opacity:1; 
stroke-linecap:round; stroke-linejoin:round;">
</g>
<g style="fill:#FFFFFF; fill-opacity:1.0; 
stroke:#FFFFFF; stroke-width:0; stroke-opacity:1; 
stroke-linecap:round; stroke-linejoin:round;">
<circle cx="30812.5" cy="31562.5" r="78.7402" /> 
</g>
<g style="fill:#FFFFFF; fill-opacity:1.0; 
stroke:#FFFFFF; stroke-width:39.3701; stroke-opacity:1; 
stroke-linecap:round; stroke-linejoin:round;">
</g>
<g style="fill:#FFFFFF; fill-opacity:1.0; 
stroke:#FFFFFF; stroke-width:0; stroke-opacity:1; 
stroke-linecap:round; stroke-linejoin:round;">
<circle cx="16812.5" cy="31562.5" r="78.7402" /> 
</g>
<g style="fill:#FFFFFF; fill-opacity:1.0; 
stroke:#FFFFFF; stroke-width:39.3701; stroke-opacity:1; 
stroke-linecap:round; stroke-linejoin:round;">
</g>
<g style="fill:#FFFFFF; fill-opacity:1.0; 
stroke:#FFFFFF; stroke-width:0; stroke-opacity:1; 
stroke-linecap:round; stroke-linejoin:round;">
<circle cx="2812.5" cy="31562.5" r="78.7402" /> 
</g>
<g style="fill:#FFFFFF; fill-opacity:1.0; 
stroke:#FFFFFF; stroke-width:39.3701; stroke-opacity:1; 
stroke-linecap:round; stroke-linejoin:round;">
</g>
<g style="fill:#FFFFFF; fill-opacity:1.0; 
stroke:#FFFFFF; stroke-width:0; stroke-opacity:1; 
stroke-linecap:round; stroke-linejoin:round;">
<circle cx="30937.5" cy="16875" r="78.7402" /> 
</g>
<g style="fill:#FFFFFF; fill-opacity:1.0; 
stroke:#FFFFFF; stroke-width:39.3701; stroke-opacity:1; 
stroke-linecap:round; stroke-linejoin:round;">
</g>
<g style="fill:#FFFFFF; fill-opacity:1.0; 
stroke:#FFFFFF; stroke-width:0; stroke-opacity:1; 
stroke-linecap:round; stroke-linejoin:round;">
<circle cx="2812.5" cy="16875" r="78.7402" /> 
</g>
<g style="fill:#FFFFFF; fill-opacity:1.0; 
stroke:#FFFFFF; stroke-width:39.3701; stroke-opacity:1; 
stroke-linecap:round; stroke-linejoin:round;">
</g>
<g style="fill:#FFFFFF; fill-opacity:1.0; 
stroke:#FFFFFF; stroke-width:0; stroke-opacity:1; 
stroke-linecap:round; stroke-linejoin:round;">
<circle cx="16875" cy="9375" r="433.071" /> 
</g>
<g style="fill:#FFFFFF; fill-opacity:1.0; 
stroke:#FFFFFF; stroke-width:39.3701; stroke-opacity:1; 
stroke-linecap:round; stroke-linejoin:round;">
</g>
<g style="fill:#FFFFFF; fill-opacity:1.0; 
stroke:#FFFFFF; stroke-width:0; stroke-opacity:1; 
stroke-linecap:round; stroke-linejoin:round;">
<circle cx="9375" cy="28125" r="433.071" /> 
</g>
<g style="fill:#FFFFFF; fill-opacity:1.0; 
stroke:#FFFFFF; stroke-width:39.3701; stroke-opacity:1; 
stroke-linecap:round; stroke-linejoin:round;">
</g>
<g style="fill:#FFFFFF; fill-opacity:1.0; 
stroke:#FFFFFF; stroke-width:0; stroke-opacity:1; 
stroke-linecap:round; stroke-linejoin:round;">
<circle cx="24375" cy="28125" r="433.071" /> 
</g>
<g style="fill:#FFFFFF; fill-opacity:1.0; 
stroke:#FFFFFF; stroke-width:39.3701; stroke-opacity:1; 
stroke-linecap:round; stroke-linejoin:round;">
</g>
<g style="fill:#000000; fill-opacity:1.0; 
stroke:#000000; stroke-width:39.3701; stroke-opacity:1; 
stroke-linecap:round; stroke-linejoin:round;">
</g>
<g style="fill:#008484; fill-opacity:1.0; 
stroke:#008484; stroke-width:39.3701; stroke-opacity:1; 
stroke-linecap:round; stroke-linejoin:round;">
</g>
<g style="fill:#008484; fill-opacity:0.0; 
stroke:#008484; stroke-width:39.3701; stroke-opacity:1; 
stroke-linecap:round; stroke-linejoin:round;">
</g>
<g style="fill:#008484; fill-opacity:0.0; 
stroke:#008484; stroke-width:118.11; stroke-opacity:1; 
stroke-linecap:round; stroke-linejoin:round;">
<path d="M16031 26123
L16171 26517
L16312 26123
" />
<path d="M16650 25926
L16706 25926
L16762 25954
L16790 25982
L16818 26039
L16846 26151
L16846 26292
L16818 26404
L16790 26460
L16762 26489
L16706 26517
L16650 26517
L16593 26489
L16565 26460
L16537 26404
L16509 26292
L16509 26151
L16537 26039
L16565 25982
L16593 25954
L16650 25926
" />
<path d="M17099 26460
L17128 26489
L17099 26517
L17071 26489
L17099 26460
L17099 26517
" />
<path d="M17690 26517
L17353 26517
" />
<path d="M17521 26517
L17521 25926
L17465 26010
L17409 26067
L17353 26095
" />
<path d="M9225 24642
L9225 24051
" />
<path d="M9479 24642
L9479 24332
L9450 24276
L9394 24248
L9310 24248
L9254 24276
L9225 24304
" />
<path d="M9675 24248
L9900 24248
" />
<path d="M9760 24051
L9760 24557
L9788 24614
L9844 24642
L9900 24642
" />
<path d="M10013 24248
L10238 24248
" />
<path d="M10097 24051
L10097 24557
L10125 24614
L10182 24642
L10238 24642
" />
<path d="M10435 24248
L10435 24839
" />
<path d="M10435 24276
L10491 24248
L10603 24248
L10660 24276
L10688 24304
L10716 24360
L10716 24529
L10688 24585
L10660 24614
L10603 24642
L10491 24642
L10435 24614
" />
<path d="M10941 24614
L10997 24642
L11110 24642
L11166 24614
L11194 24557
L11194 24529
L11166 24473
L11110 24445
L11025 24445
L10969 24417
L10941 24360
L10941 24332
L10969 24276
L11025 24248
L11110 24248
L11166 24276
" />
<path d="M11447 24585
L11475 24614
L11447 24642
L11419 24614
L11447 24585
L11447 24642
" />
<path d="M11447 24276
L11475 24304
L11447 24332
L11419 24304
L11447 24276
L11447 24332
" />
<path d="M12150 24023
L11644 24782
" />
<path d="M12769 24023
L12263 24782
" />
<path d="M13219 24248
L13219 24726
L13191 24782
L13162 24810
L13106 24839
L13022 24839
L12966 24810
" />
<path d="M13219 24614
L13162 24642
L13050 24642
L12994 24614
L12966 24585
L12937 24529
L12937 24360
L12966 24304
L12994 24276
L13050 24248
L13162 24248
L13219 24276
" />
<path d="M13500 24642
L13500 24248
" />
<path d="M13500 24051
L13472 24079
L13500 24107
L13528 24079
L13500 24051
L13500 24107
" />
<path d="M13697 24248
L13922 24248
" />
<path d="M13781 24051
L13781 24557
L13809 24614
L13866 24642
L13922 24642
" />
<path d="M14119 24642
L14119 24051
" />
<path d="M14372 24642
L14372 24332
L14344 24276
L14287 24248
L14203 24248
L14147 24276
L14119 24304
" />
<path d="M14906 24248
L14906 24642
" />
<path d="M14653 24248
L14653 24557
L14681 24614
L14737 24642
L14822 24642
L14878 24614
L14906 24585
" />
<path d="M15187 24642
L15187 24051
" />
<path d="M15187 24276
L15243 24248
L15356 24248
L15412 24276
L15440 24304
L15468 24360
L15468 24529
L15440 24585
L15412 24614
L15356 24642
L15243 24642
L15187 24614
" />
<path d="M15722 24585
L15750 24614
L15722 24642
L15693 24614
L15722 24585
L15722 24642
" />
<path d="M16256 24614
L16200 24642
L16087 24642
L16031 24614
L16003 24585
L15975 24529
L15975 24360
L16003 24304
L16031 24276
L16087 24248
L16200 24248
L16256 24276
" />
<path d="M16593 24642
L16537 24614
L16509 24585
L16481 24529
L16481 24360
L16509 24304
L16537 24276
L16593 24248
L16678 24248
L16734 24276
L16762 24304
L16790 24360
L16790 24529
L16762 24585
L16734 24614
L16678 24642
L16593 24642
" />
<path d="M17043 24642
L17043 24248
" />
<path d="M17043 24304
L17071 24276
L17128 24248
L17212 24248
L17268 24276
L17296 24332
L17296 24642
" />
<path d="M17296 24332
L17324 24276
L17381 24248
L17465 24248
L17521 24276
L17549 24332
L17549 24642
" />
<path d="M18252 24023
L17746 24782
" />
<path d="M18365 24248
L18590 24248
" />
<path d="M18449 24051
L18449 24557
L18477 24614
L18534 24642
L18590 24642
" />
<path d="M18787 24642
L18787 24248
" />
<path d="M18787 24360
L18815 24304
L18843 24276
L18899 24248
L18955 24248
" />
<path d="M19377 24614
L19321 24642
L19209 24642
L19152 24614
L19124 24557
L19124 24332
L19152 24276
L19209 24248
L19321 24248
L19377 24276
L19405 24332
L19405 24389
L19124 24445
" />
<path d="M19659 24642
L19659 24051
" />
<path d="M19659 24276
L19715 24248
L19827 24248
L19883 24276
L19912 24304
L19940 24360
L19940 24529
L19912 24585
L19883 24614
L19827 24642
L19715 24642
L19659 24614
" />
<path d="M20193 24642
L20193 24051
" />
<path d="M20193 24276
L20249 24248
L20362 24248
L20418 24276
L20446 24304
L20474 24360
L20474 24529
L20446 24585
L20418 24614
L20362 24642
L20249 24642
L20193 24614
" />
<path d="M21149 24023
L20643 24782
" />
<path d="M21346 24248
L21346 24642
" />
<path d="M21346 24304
L21374 24276
L21430 24248
L21515 24248
L21571 24276
L21599 24332
L21599 24642
" />
<path d="M22133 24642
L22133 24332
L22105 24276
L22049 24248
L21936 24248
L21880 24276
" />
<path d="M22133 24614
L22077 24642
L21936 24642
L21880 24614
L21852 24557
L21852 24501
L21880 24445
L21936 24417
L22077 24417
L22133 24389
" />
<path d="M22414 24248
L22414 24642
" />
<path d="M22414 24304
L22443 24276
L22499 24248
L22583 24248
L22639 24276
L22668 24332
L22668 24642
" />
<path d="M22949 24417
L23399 24417
" />
<path d="M23989 24642
L23652 24642
" />
<path d="M23821 24642
L23821 24051
L23764 24135
L23708 24192
L23652 24220
" />
<path d="M24524 24051
L24242 24051
L24214 24332
L24242 24304
L24299 24276
L24439 24276
L24495 24304
L24524 24332
L24552 24389
L24552 24529
L24524 24585
L24495 24614
L24439 24642
L24299 24642
L24242 24614
L24214 24585
" />
</g>
<g style="fill:#008484; fill-opacity:0.0; 
stroke:#008484; stroke-width:236.22; stroke-opacity:1; 
stroke-linecap:round; stroke-linejoin:round;">
<path d="M10182 22453
L10182 20484
L11531 22453
L11531 20484
" />
<path d="M13669 22453
L13669 21421
L13556 21234
L13331 21140
L12881 21140
L12656 21234
" />
<path d="M13669 22359
L13444 22453
L12881 22453
L12656 22359
L12544 22171
L12544 21984
L12656 21796
L12881 21703
L13444 21703
L13669 21609
" />
<path d="M14794 22453
L14794 20484
L16143 22453
L16143 20484
" />
<path d="M17268 21703
L19068 21703
" />
<path d="M21430 22453
L20080 22453
" />
<path d="M20755 22453
L20755 20484
L20530 20765
L20305 20953
L20080 21046
" />
<path d="M23567 20484
L22443 20484
L22330 21421
L22443 21328
L22668 21234
L23230 21234
L23455 21328
L23567 21421
L23680 21609
L23680 22078
L23567 22265
L23455 22359
L23230 22453
L22668 22453
L22443 22359
L22330 22265
" />
</g>
<g style="fill:#008484; fill-opacity:1.0; 
stroke:#008484; stroke-width:3.93701; stroke-opacity:1; 
stroke-linecap:round; stroke-linejoin:round;">
<polyline style="fill-rule:evenodd;"
points="14386,16915
14421,16932
14463,16962
14494,16994
14516,17035
14529,17090
14536,17164
14538,17263
14538,17306
14538,17399
14536,17466
14532,17512
14526,17544
14515,17567
14505,17583
14436,17651
14356,17692
14269,17704
14182,17686
14154,17674
14088,17639
14088,18181
14136,18156
14200,18136
14278,18131
14356,18141
14415,18161
14464,18200
14506,18256
14509,18262
14523,18289
14532,18316
14539,18349
14543,18394
14545,18455
14546,18539
14547,18633
14547,18934
14366,18934
14366,18379
14316,18337
14263,18303
14214,18297
14164,18313
14137,18328
14118,18350
14104,18384
14094,18434
14088,18504
14085,18600
14084,18663
14079,18926
13993,18931
13907,18936
13907,17308
14088,17308
14092,17399
14108,17462
14137,17501
14182,17520
14227,17524
14278,17520
14312,17502
14334,17479
14351,17454
14361,17427
14365,17388
14365,17330
14364,17281
14360,17208
14355,17159
14346,17129
14333,17108
14319,17096
14264,17071
14199,17066
14162,17075
14125,17107
14101,17169
14089,17260
14088,17308
13907,17308
13907,16901
13997,16901
14052,16903
14080,16911
14088,16926
14088,16926
14091,16941
14108,16939
14141,16923
14218,16899
14304,16896
14386,16915
" /> 
<polyline style="fill-rule:evenodd;"
points="15070,18137
15147,18158
15206,18195
15247,18244
15260,18265
15270,18286
15276,18314
15280,18353
15283,18409
15284,18486
15284,18589
15284,18617
15284,18934
15206,18934
15155,18930
15118,18922
15109,18916
15084,18907
15058,18916
15015,18928
14953,18933
14884,18931
14821,18922
14784,18911
14713,18865
14669,18802
14649,18718
14649,18715
14650,18678
14809,18678
14823,18721
14845,18744
14891,18763
14950,18770
15011,18766
15060,18752
15074,18743
15098,18701
15104,18653
15104,18590
15013,18590
14927,18596
14862,18615
14821,18644
14809,18678
14650,18678
14653,18623
14683,18551
14740,18496
14748,18491
14782,18474
14824,18464
14883,18460
14952,18459
15104,18459
15104,18395
15098,18346
15081,18313
15079,18311
15043,18296
14988,18291
14927,18294
14873,18304
14841,18320
14823,18333
14805,18335
14780,18325
14742,18299
14684,18255
14679,18251
14682,18236
14704,18210
14738,18182
14776,18159
14788,18153
14831,18142
14894,18134
14965,18131
14968,18131
15070,18137
" /> 
<polyline style="fill-rule:evenodd;"
points="15579,18132
15604,18140
15612,18156
15612,18163
15614,18184
15623,18187
15650,18173
15665,18163
15715,18143
15774,18133
15836,18132
15894,18140
15942,18154
15972,18176
15978,18202
15975,18209
15953,18239
15919,18275
15913,18281
15881,18308
15853,18317
15814,18311
15798,18307
15750,18297
15716,18302
15687,18317
15660,18338
15641,18364
15628,18401
15619,18452
15614,18525
15612,18622
15612,18681
15612,18934
15448,18934
15448,18131
15530,18131
15579,18132
" /> 
<polyline style="fill-rule:evenodd;"
points="16612,18934
16522,18934
16470,18932
16442,18926
16433,18912
16432,18903
16430,18884
16420,18881
16392,18892
16371,18903
16289,18928
16200,18930
16128,18911
16060,18865
16009,18797
15981,18717
15980,18713
15976,18664
15974,18594
15974,18541
16153,18541
16157,18611
16167,18669
16180,18702
16228,18747
16285,18763
16344,18750
16395,18711
16414,18685
16425,18654
16431,18609
16432,18540
16430,18473
16423,18413
16415,18374
16413,18370
16378,18328
16327,18305
16270,18301
16217,18317
16178,18353
16174,18361
16161,18405
16154,18468
16153,18541
15974,18541
15974,18514
15975,18471
15983,18364
16000,18285
16028,18226
16069,18182
16109,18156
16165,18138
16234,18132
16305,18137
16366,18152
16398,18171
16432,18201
16432,17819
16612,17819
16612,18934
" /> 
<polyline style="fill-rule:evenodd;"
points="17306,18139
17391,18393
17476,18647
17502,18557
17518,18501
17540,18426
17562,18343
17574,18299
17619,18131
17806,18131
17750,18307
17723,18394
17690,18498
17655,18607
17624,18704
17554,18926
17478,18931
17402,18936
17360,18800
17335,18715
17307,18622
17283,18539
17282,18536
17264,18480
17248,18442
17237,18428
17234,18430
17226,18452
17211,18500
17190,18567
17166,18648
17153,18692
17082,18934
16931,18934
16810,18553
16776,18446
16746,18349
16719,18266
16699,18202
16686,18162
16682,18150
16685,18138
16709,18133
16761,18133
16769,18134
16864,18139
16927,18368
16950,18452
16970,18526
16986,18583
16996,18617
16998,18622
17006,18616
17022,18583
17044,18527
17070,18454
17092,18388
17177,18129
17306,18139
" /> 
<polyline style="fill-rule:evenodd;"
points="18228,18136
18297,18152
18317,18161
18356,18184
18386,18211
18408,18244
18423,18290
18434,18353
18440,18436
18444,18545
18445,18618
18451,18934
18359,18934
18304,18932
18275,18924
18268,18910
18264,18896
18247,18899
18223,18910
18163,18928
18087,18933
18007,18925
17935,18905
17929,18902
17864,18856
17821,18793
17801,18718
17802,18691
17964,18691
17978,18727
18020,18753
18088,18767
18125,18769
18185,18764
18225,18746
18235,18737
18262,18690
18268,18647
18268,18590
18188,18590
18095,18594
18030,18609
17989,18635
17980,18647
17964,18691
17802,18691
17805,18640
17835,18566
17875,18515
17900,18493
17924,18479
17955,18470
18001,18465
18070,18462
18097,18461
18268,18456
18268,18404
18261,18349
18237,18316
18189,18295
18187,18295
18119,18287
18052,18298
18002,18324
17982,18337
17960,18335
17927,18316
17907,18303
17869,18275
17846,18253
17842,18247
17858,18216
17904,18178
17924,18166
17981,18144
18059,18131
18145,18129
18228,18136
" /> 
<polyline style="fill-rule:evenodd;"
points="19006,18130
19069,18143
19105,18161
19143,18192
19089,18260
19056,18301
19034,18321
19011,18324
18979,18314
18963,18308
18901,18300
18844,18318
18801,18358
18795,18370
18787,18404
18781,18466
18778,18552
18776,18657
18776,18672
18776,18934
18596,18934
18596,18131
18686,18131
18738,18132
18765,18138
18775,18152
18776,18165
18776,18199
18819,18165
18869,18141
18935,18130
19006,18130
" /> 
<polyline style="fill-rule:evenodd;"
points="19524,18135
19603,18155
19668,18197
19700,18229
19752,18303
19782,18389
19792,18495
19792,18504
19793,18590
19297,18590
19308,18635
19327,18676
19360,18718
19367,18725
19427,18762
19496,18768
19574,18744
19588,18737
19629,18717
19656,18706
19661,18705
19677,18715
19709,18740
19725,18754
19759,18785
19770,18805
19762,18824
19758,18829
19731,18852
19685,18879
19653,18895
19563,18924
19463,18933
19368,18922
19342,18914
19260,18870
19199,18803
19159,18711
19139,18593
19137,18532
19144,18443
19301,18443
19316,18450
19357,18455
19416,18458
19456,18459
19529,18458
19575,18456
19600,18450
19610,18440
19612,18426
19598,18382
19563,18338
19516,18305
19470,18291
19406,18303
19352,18338
19314,18389
19301,18443
19144,18443
19146,18403
19174,18299
19222,18221
19289,18168
19378,18139
19425,18134
19524,18135
" /> 
<polyline style="fill-rule:evenodd;"
points="13565,16910
13651,16948
13716,17011
13761,17100
13785,17214
13787,17232
13788,17358
13770,17468
13735,17558
13716,17586
13650,17647
13566,17687
13472,17703
13376,17695
13303,17669
13241,17626
13190,17569
13189,17568
13168,17533
13154,17498
13146,17454
13141,17391
13139,17340
13138,17293
13302,17293
13304,17339
13310,17401
13320,17441
13339,17469
13356,17485
13417,17520
13482,17524
13541,17500
13571,17472
13593,17444
13605,17417
13611,17382
13611,17330
13610,17282
13606,17213
13600,17169
13590,17140
13572,17117
13558,17105
13499,17071
13436,17070
13383,17089
13338,17131
13311,17198
13302,17293
13138,17293
13137,17238
13141,17161
13151,17104
13168,17058
13196,17018
13206,17007
13269,16947
13336,16913
13419,16898
13459,16897
13565,16910
" /> 
<polyline style="fill-rule:evenodd;"
points="15106,16919
15122,16927
15179,16969
15232,17029
15272,17096
15283,17126
15294,17181
15300,17247
15301,17274
15301,17360
14805,17360
14816,17405
14842,17459
14887,17505
14941,17534
14975,17540
15022,17533
15078,17514
15096,17506
15166,17471
15226,17516
15260,17547
15279,17572
15279,17580
15263,17598
15227,17625
15195,17647
15107,17685
15009,17703
14911,17698
14834,17674
14753,17624
14696,17557
14661,17471
14645,17361
14643,17311
14649,17196
14650,17193
14814,17193
14818,17204
14837,17209
14875,17212
14939,17213
14964,17213
15038,17212
15086,17208
15111,17202
15120,17192
15120,17188
15110,17162
15084,17124
15073,17111
15032,17074
14989,17060
14966,17059
14904,17074
14852,17115
14818,17174
14818,17176
14814,17193
14650,17193
14668,17106
14702,17033
14744,16982
14822,16926
14913,16897
15011,16894
15106,16919
" /> 
<polyline style="fill-rule:evenodd;"
points="16893,16898
16955,16910
17019,16935
17026,16938
17075,16964
17109,16987
17120,17003
17109,17028
17084,17064
17073,17078
17027,17132
16967,17097
16910,17074
16845,17061
16782,17060
16733,17072
16721,17079
16699,17113
16696,17152
16713,17182
16723,17188
16752,17195
16804,17204
16868,17212
16880,17213
16983,17231
17057,17261
17107,17307
17134,17370
17143,17448
17131,17536
17092,17605
17027,17655
16936,17687
16834,17699
16750,17699
16683,17688
16637,17672
16579,17645
16525,17613
16506,17599
16456,17559
16575,17439
16643,17483
16710,17517
16782,17534
16852,17536
16911,17523
16953,17494
16966,17470
16964,17431
16931,17402
16866,17381
16795,17372
16686,17354
16605,17320
16551,17269
16522,17200
16518,17118
16538,17033
16582,16968
16651,16924
16746,16901
16816,16896
16893,16898
" /> 
<polyline style="fill-rule:evenodd;"
points="17671,16911
17754,16956
17819,17027
17849,17085
17862,17136
17871,17209
17874,17294
17873,17378
17866,17452
17858,17492
17831,17546
17785,17604
17729,17654
17674,17687
17673,17687
17604,17701
17523,17702
17445,17689
17416,17678
17339,17635
17284,17578
17248,17502
17227,17403
17223,17351
17223,17286
17399,17286
17405,17381
17422,17454
17449,17500
17468,17513
17518,17522
17577,17520
17627,17506
17641,17499
17676,17456
17699,17391
17709,17312
17704,17227
17693,17176
17662,17117
17614,17079
17555,17067
17494,17080
17447,17113
17422,17140
17408,17167
17401,17203
17399,17259
17399,17286
17223,17286
17224,17213
17247,17099
17290,17011
17356,16947
17442,16908
17461,16904
17572,16893
17671,16911
" /> 
<polyline style="fill-rule:evenodd;"
points="18170,17156
18171,17277
18177,17368
18188,17434
18207,17479
18234,17506
18271,17520
18317,17523
18365,17519
18402,17505
18429,17477
18447,17431
18458,17364
18463,17271
18465,17156
18465,16901
18645,16901
18645,17688
18555,17688
18500,17686
18472,17678
18465,17663
18460,17650
18441,17653
18403,17672
18317,17700
18225,17698
18137,17667
18095,17643
18063,17616
18040,17583
18024,17538
18014,17478
18008,17397
18006,17291
18006,17209
18006,16901
18170,16901
18170,17156
" /> 
<polyline style="fill-rule:evenodd;"
points="19765,16908
19860,16948
19890,16968
19928,16998
19952,17022
19956,17030
19945,17047
19915,17076
19890,17096
19824,17149
19772,17105
19732,17077
19693,17067
19648,17070
19577,17087
19527,17124
19498,17184
19484,17270
19484,17270
19485,17366
19503,17436
19540,17484
19565,17500
19630,17520
19701,17521
19762,17501
19776,17491
19812,17467
19841,17463
19871,17481
19905,17514
19959,17569
19899,17618
19807,17673
19704,17701
19596,17699
19525,17681
19442,17636
19375,17566
19345,17516
19320,17445
19308,17355
19308,17257
19320,17163
19344,17084
19348,17076
19404,16997
19479,16940
19569,16905
19666,16894
19765,16908
" /> 
<polyline style="fill-rule:evenodd;"
points="20366,16898
20408,16909
20488,16946
20557,17003
20605,17071
20611,17087
20620,17127
20626,17186
20629,17246
20629,17360
20391,17360
20293,17361
20224,17363
20180,17369
20157,17380
20152,17398
20161,17425
20177,17456
20220,17509
20280,17535
20354,17534
20438,17505
20510,17470
20570,17518
20630,17565
20573,17617
20498,17666
20406,17696
20306,17704
20210,17689
20194,17684
20110,17640
20047,17574
20004,17485
19980,17370
19980,17367
19978,17242
19987,17197
20153,17197
20168,17204
20210,17209
20271,17212
20310,17213
20382,17212
20428,17211
20451,17206
20459,17197
20457,17182
20456,17176
20426,17121
20380,17077
20340,17058
20285,17059
20231,17083
20185,17123
20157,17172
20153,17197
19987,17197
19999,17131
20041,17039
20101,16967
20177,16917
20266,16894
20366,16898
" /> 
<polyline style="fill-rule:evenodd;"
points="15891,16915
15932,16934
15972,16962
16002,16995
16024,17036
16039,17091
16048,17164
16053,17260
16054,17384
16054,17397
16055,17688
15875,17688
15875,17420
15874,17320
15873,17248
15871,17198
15866,17165
15859,17142
15847,17125
15831,17108
15775,17072
15714,17066
15656,17088
15636,17105
15621,17121
15611,17138
15603,17162
15599,17197
15597,17250
15596,17325
15596,17417
15596,17688
15415,17688
15415,16901
15506,16901
15560,16903
15588,16911
15596,16926
15596,16926
15600,16941
15616,16939
15649,16923
15724,16900
15809,16897
15891,16915
" /> 
<polyline style="fill-rule:evenodd;"
points="19221,16900
19277,16918
19313,16939
19325,16957
19322,16977
19301,17009
19283,17032
19246,17073
19218,17090
19195,17089
19125,17071
19073,17072
19032,17092
19018,17104
18973,17145
18973,17688
18793,17688
18793,16901
18883,16901
18937,16903
18965,16911
18973,16926
18973,16926
18977,16942
18994,16940
19018,16928
19067,16908
19108,16895
19159,16892
19221,16900
" /> 
<polyline style="fill-rule:evenodd;"
points="17366,11466
17440,11860
17714,11972
17987,12085
18315,11862
18407,11800
18490,11744
18560,11698
18614,11664
18647,11643
18657,11639
18673,11650
18708,11681
18757,11728
18818,11787
18885,11854
18955,11925
19024,11996
19088,12063
19144,12121
19187,12168
19213,12199
19219,12210
19210,12229
19185,12271
19146,12331
19097,12407
19039,12492
19006,12541
18945,12630
18891,12711
18846,12779
18813,12830
18795,12860
18793,12866
18799,12885
18815,12927
18840,12987
18871,13060
18904,13139
18938,13218
18970,13292
18997,13354
19017,13399
19028,13420
19028,13421
19045,13425
19089,13434
19156,13447
19242,13464
19342,13483
19400,13493
19507,13514
19603,13533
19684,13550
19745,13564
19781,13575
19788,13578
19796,13599
19801,13648
19806,13718
19809,13803
19810,13899
19811,13999
19809,14098
19807,14190
19803,14269
19798,14329
19792,14366
19788,14374
19765,14383
19716,14396
19647,14411
19566,14428
19538,14433
19401,14458
19293,14478
19210,14494
19149,14507
19106,14517
19077,14526
19059,14534
19048,14542
19047,14543
19032,14568
19010,14616
18981,14681
18950,14758
18918,14841
18886,14924
18859,15000
18837,15065
18823,15112
18819,15135
18819,15136
18832,15155
18860,15196
18901,15256
18951,15330
19008,15414
19025,15437
19083,15523
19134,15602
19176,15669
19205,15719
19218,15747
19219,15751
19207,15770
19176,15807
19129,15858
19069,15919
19002,15987
18931,16058
18860,16127
18793,16190
18734,16244
18688,16284
18658,16307
18650,16311
18630,16302
18591,16278
18537,16244
18496,16216
18421,16164
18333,16104
18245,16044
18197,16011
18036,15902
17901,15976
17839,16008
17786,16032
17751,16047
17742,16049
17731,16034
17710,15993
17679,15929
17642,15846
17598,15747
17550,15637
17500,15520
17449,15399
17398,15278
17350,15160
17306,15050
17267,14952
17234,14869
17211,14804
17198,14763
17196,14749
17213,14730
17249,14701
17299,14666
17303,14663
17430,14562
17533,14443
17610,14311
17660,14169
17684,14023
17679,13874
17645,13727
17581,13586
17562,13555
17464,13431
17349,13331
17219,13256
17080,13207
16936,13184
16789,13187
16645,13217
16507,13275
16379,13362
16339,13397
16239,13506
16166,13621
16115,13751
16087,13879
16080,14023
16103,14167
16154,14308
16230,14439
16329,14557
16448,14655
16464,14666
16514,14700
16552,14729
16570,14748
16570,14749
16566,14769
16551,14815
16525,14883
16492,14970
16452,15071
16406,15183
16357,15301
16306,15423
16255,15543
16205,15660
16158,15767
16116,15863
16079,15943
16051,16003
16031,16039
16023,16049
15999,16041
15955,16021
15897,15992
15865,15976
15730,15902
15568,16011
15486,16067
15396,16129
15312,16187
15269,16216
15210,16256
15160,16287
15125,16307
15114,16311
15097,16300
15061,16269
15008,16221
14943,16161
14868,16090
14821,16044
14738,15963
14666,15890
14609,15829
14569,15783
14548,15755
14546,15749
14555,15727
14580,15683
14619,15621
14668,15545
14725,15461
14741,15437
14799,15352
14852,15275
14896,15211
14927,15164
14944,15138
14946,15136
14943,15115
14931,15071
14909,15008
14882,14932
14851,14850
14819,14767
14787,14689
14759,14622
14735,14572
14720,14544
14718,14543
14709,14535
14693,14527
14666,14519
14626,14509
14568,14497
14490,14481
14387,14462
14256,14438
14228,14433
14143,14417
14070,14401
14014,14387
13982,14376
13978,14374
13970,14352
13965,14303
13960,14233
13957,14147
13955,14051
13955,13951
13956,13852
13958,13761
13962,13682
13967,13621
13973,13585
13977,13578
13998,13570
14047,13558
14119,13542
14208,13524
14310,13504
14365,13493
14471,13474
14564,13456
14642,13441
14700,13429
14732,13422
14737,13421
14746,13404
14765,13362
14791,13302
14823,13230
14856,13151
14890,13071
14921,12997
14947,12934
14965,12889
14973,12867
14973,12866
14964,12848
14939,12808
14900,12748
14851,12674
14793,12589
14760,12540
14699,12451
14644,12370
14600,12301
14567,12249
14549,12217
14547,12210
14558,12193
14588,12157
14635,12107
14693,12046
14759,11978
14829,11906
14898,11836
14964,11771
15022,11715
15068,11672
15099,11645
15109,11639
15126,11648
15166,11673
15225,11711
15299,11760
15385,11818
15450,11862
15778,12085
16052,11972
16325,11860
16399,11466
16474,11073
17292,11073
17366,11466
" /> 
</g>
<g style="fill:#000000; fill-opacity:1.0; 
stroke:#000000; stroke-width:3.93701; stroke-opacity:1; 
stroke-linecap:round; stroke-linejoin:round;">
</g>
<g style="fill:#C2C200; fill-opacity:1.0; 
stroke:#C2C200; stroke-width:3.93701; stroke-opacity:1; 
stroke-linecap:round; stroke-linejoin:round;">
</g>
<g style="fill:#C2C200; fill-opacity:1.0; 
stroke:#C2C200; stroke-width:39.3701; stroke-opacity:1; 
stroke-linecap:round; stroke-linejoin:round;">
</g>
<g style="fill:#C2C200; fill-opacity:0.0; 
stroke:#C2C200; stroke-width:39.3701; stroke-opacity:1; 
stroke-linecap:round; stroke-linejoin:round;">
<circle cx="16875" cy="9375" r="433.071" /> 
<circle cx="24375" cy="28125" r="433.071" /> 
<circle cx="9375" cy="28125" r="433.071" /> 
<circle cx="16875" cy="28125" r="787.402" /> 
<circle cx="28125" cy="28125" r="787.402" /> 
<circle cx="5625" cy="28125" r="787.402" /> 
<circle cx="28125" cy="20625" r="787.402" /> 
<circle cx="20625" cy="20625" r="787.402" /> 
<circle cx="13125" cy="20625" r="787.402" /> 
<circle cx="5625" cy="20625" r="787.402" /> 
<circle cx="28125" cy="13125" r="787.402" /> 
<circle cx="20625" cy="13125" r="787.402" /> 
<circle cx="13125" cy="13125" r="787.402" /> 
<circle cx="5625" cy="13125" r="787.402" /> 
<circle cx="28125" cy="5625" r="787.402" /> 
<circle cx="20625" cy="5625" r="787.402" /> 
<circle cx="13125" cy="5625" r="787.402" /> 
<circle cx="5625" cy="5625" r="787.402" /> 
<path d="M1678.15 31678.1 A393.701 393.701 0.0 0 0 2071.85 32071.9 " />
<path d="M31678.1 32071.9 A393.701 393.701 0.0 0 0 32071.9 31678.1 " />
<path d="M32071.9 2071.85 A393.701 393.701 0.0 0 0 31678.1 1678.15 " />
<path d="M2071.85 1678.15 A393.701 393.701 0.0 0 0 1678.15 2071.85 " />
<path d="M1678 2071
L1678 31678
" />
<path d="M31678 1678
L2071 1678
" />
<path d="M32071 31678
L32071 2071
" />
<path d="M2071 32071
L31678 32071
" />
</g> 
</svg>
