999
dxfrw 0.6.1
  0
SECTION
  2
HEADER
  9
$ACADVER
  1
AC1021
  9
$DWGCODEPAGE
  3
ANSI_1252
  9
$INSBASE
 10
0
 20
0
 30
0
  9
$EXTMIN
 10
-1
 20
-1.000032369659537
 30
0
  9
$EXTMAX
 10
76.3000001392171
 20
76.30026852766763
 30
0
  9
$LIMMIN
 10
0
 20
0
  9
$LIMMAX
 10
420
 20
297
  9
$ORTHOMODE
 70
    0
  9
$REGENMODE
 70
    1
  9
$FILLMODE
 70
    1
  9
$QTEXTMODE
 70
    0
  9
$MIRRTEXT
 70
    0
  9
$LTSCALE
 40
1
  9
$ATTMODE
 70
    0
  9
$TEXTSIZE
 40
2.5
  9
$TRACEWID
 40
15.68
  9
$TEXTSTYLE
  7
STANDARD
  9
$CLAYER
  8
bottom-support
  9
$CELTYPE
  6
BYLAYER
  9
$CECOLOR
 62
  256
  9
$CELTSCALE
 40
1
  9
$DISPSILH
 70
    0
  9
$DIMSCALE
 40
1
  9
$DIMASZ
 40
2.5
  9
$DIMEXO
 40
0.625
  9
$DIMDLI
 40
3.75
  9
$DIMRND
 40
0
  9
$DIMDLE
 40
0
  9
$DIMEXE
 40
1.25
  9
$DIMTP
 40
0
  9
$DIMTM
 40
0
  9
$DIMTXT
 40
2.5
  9
$DIMCEN
 40
2.5
  9
$DIMTSZ
 40
0
  9
$DIMTOL
 70
    0
  9
$DIMLIM
 70
    0
  9
$DIMTIH
 70
    0
  9
$DIMTOH
 70
    0
  9
$DIMSE1
 70
    0
  9
$DIMSE2
 70
    0
  9
$DIMTAD
 70
    1
  9
$DIMZIN
 70
    8
  9
$DIMBLK
  1

  9
$DIMASO
 70
    1
  9
$DIMSHO
 70
    1
  9
$DIMPOST
  1

  9
$DIMAPOST
  1

  9
$DIMALT
 70
    0
  9
$DIMALTD
 70
    3
  9
$DIMALTF
 40
0.03937
  9
$DIMLFAC
 40
1
  9
$DIMTOFL
 70
    1
  9
$DIMTVP
 40
0
  9
$DIMTIX
 70
    0
  9
$DIMSOXD
 70
    0
  9
$DIMSAH
 70
    0
  9
$DIMBLK1
  1

  9
$DIMBLK2
  1

  9
$DIMSTYLE
  2
Standard
  9
$DIMCLRD
 70
    0
  9
$DIMCLRE
 70
    0
  9
$DIMCLRT
 70
    0
  9
$DIMTFAC
 40
1
  9
$DIMGAP
 40
0.625
  9
$DIMJUST
 70
    0
  9
$DIMSD1
 70
    0
  9
$DIMSD2
 70
    0
  9
$DIMTOLJ
 70
    0
  9
$DIMTZIN
 70
    8
  9
$DIMALTZ
 70
    0
  9
$DIMALTTZ
 70
    0
  9
$DIMUPT
 70
    0
  9
$DIMDEC
 70
    2
  9
$DIMTDEC
 70
    2
  9
$DIMALTU
 70
    2
  9
$DIMALTTD
 70
    3
  9
$DIMTXSTY
  7
STANDARD
  9
$DIMAUNIT
 70
    0
  9
$DIMADEC
 70
    0
  9
$DIMALTRND
 40
0
  9
$DIMAZIN
 70
    0
  9
$DIMDSEP
 70
   44
  9
$DIMATFIT
 70
    3
  9
$DIMFRAC
 70
    0
  9
$DIMLDRBLK
  1
STANDARD
  9
$DIMLUNIT
 70
    2
  9
$DIMLWD
 70
   -2
  9
$DIMLWE
 70
   -2
  9
$DIMTMOVE
 70
    0
  9
$DIMFXL
 40
1
  9
$DIMFXLON
 70
    0
  9
$DIMJOGANG
 40
0.7854
  9
$DIMTFILL
 70
    0
  9
$DIMTFILLCLR
 70
    0
  9
$DIMARCSYM
 70
    0
  9
$DIMLTYPE
  6

  9
$DIMLTEX1
  6

  9
$DIMLTEX2
  6

  9
$LUNITS
 70
    2
  9
$LUPREC
 70
    4
  9
$SKETCHINC
 40
1
  9
$FILLETRAD
 40
0
  9
$AUNITS
 70
    0
  9
$AUPREC
 70
    2
  9
$MENU
  1
.
  9
$ELEVATION
 40
0
  9
$PELEVATION
 40
0
  9
$THICKNESS
 40
0
  9
$LIMCHECK
 70
    0
  9
$CHAMFERA
 40
0
  9
$CHAMFERB
 40
0
  9
$CHAMFERC
 40
0
  9
$CHAMFERD
 40
0
  9
$SKPOLY
 70
    0
  9
$USRTIMER
 70
    1
  9
$ANGBASE
 50
0
  9
$ANGDIR
 70
    0
  9
$PDMODE
 70
   34
  9
$PDSIZE
 40
0
  9
$PLINEWID
 40
0
  9
$SPLFRAME
 70
    0
  9
$SPLINETYPE
 70
    2
  9
$SPLINESEGS
 70
    8
  9
$HANDSEED
  5
20000
  9
$SURFTAB1
 70
    6
  9
$SURFTAB2
 70
    6
  9
$SURFTYPE
 70
    6
  9
$SURFU
 70
    6
  9
$SURFV
 70
    6
  9
$UCSBASE
  2

  9
$UCSNAME
  2

  9
$UCSORG
 10
0
 20
0
 30
0
  9
$UCSXDIR
 10
1
 20
0
 30
0
  9
$UCSYDIR
 10
0
 20
1
 30
0
  9
$UCSORTHOREF
  2

  9
$UCSORTHOVIEW
 70
    0
  9
$UCSORGTOP
 10
0
 20
0
 30
0
  9
$UCSORGBOTTOM
 10
0
 20
0
 30
0
  9
$UCSORGLEFT
 10
0
 20
0
 30
0
  9
$UCSORGRIGHT
 10
0
 20
0
 30
0
  9
$UCSORGFRONT
 10
0
 20
0
 30
0
  9
$UCSORGBACK
 10
0
 20
0
 30
0
  9
$PUCSBASE
  2

  9
$PUCSNAME
  2

  9
$PUCSORG
 10
0
 20
0
 30
0
  9
$PUCSXDIR
 10
1
 20
0
 30
0
  9
$PUCSYDIR
 10
0
 20
1
 30
0
  9
$PUCSORTHOREF
  2

  9
$PUCSORTHOVIEW
 70
    0
  9
$PUCSORGTOP
 10
0
 20
0
 30
0
  9
$PUCSORGBOTTOM
 10
0
 20
0
 30
0
  9
$PUCSORGLEFT
 10
0
 20
0
 30
0
  9
$PUCSORGRIGHT
 10
0
 20
0
 30
0
  9
$PUCSORGFRONT
 10
0
 20
0
 30
0
  9
$PUCSORGBACK
 10
0
 20
0
 30
0
  9
$USERI1
 70
    0
  9
$USERI2
 70
    0
  9
$USERI3
 70
    0
  9
$USERI4
 70
    0
  9
$USERI5
 70
    0
  9
$USERR1
 40
0
  9
$USERR2
 40
0
  9
$USERR3
 40
0
  9
$USERR4
 40
0
  9
$USERR5
 40
0
  9
$WORLDVIEW
 70
    1
  9
$SHADEDGE
 70
    3
  9
$SHADEDIF
 70
   70
  9
$TILEMODE
 70
    1
  9
$MAXACTVP
 70
   64
  9
$PINSBASE
 10
0
 20
0
 30
0
  9
$PLIMCHECK
 70
    0
  9
$PEXTMIN
 10
0
 20
0
 30
0
  9
$PEXTMAX
 10
0
 20
0
 30
0
  9
$GRIDMODE
 70
    1
  9
$SNAPSTYLE
 70
    0
  9
$PLIMMIN
 10
0
 20
0
  9
$PLIMMAX
 10
210
 20
297
  9
$UNITMODE
 70
    0
  9
$VISRETAIN
 70
    1
  9
$PLINEGEN
 70
    0
  9
$PSLTSCALE
 70
    1
  9
$TREEDEPTH
 70
 3020
  9
$CMLSTYLE
  2
Standard
  9
$CMLJUST
 70
    0
  9
$CMLSCALE
 40
20
  9
$PROXYGRAPHICS
 70
    1
  9
$MEASUREMENT
 70
    1
  9
$CELWEIGHT
370
   -1
  9
$ENDCAPS
280
    0
  9
$JOINSTYLE
280
    0
  9
$LWDISPLAY
290
    0
  9
$INSUNITS
 70
    4
  9
$HYPERLINKBASE
  1

  9
$STYLESHEET
  1

  9
$XEDIT
290
    1
  9
$CEPSNTYPE
380
    0
  9
$PSTYLEMODE
290
    1
  9
$EXTNAMES
290
    1
  9
$PSVPSCALE
 40
1
  9
$OLESTARTUP
290
    0
  9
$SORTENTS
280
  127
  9
$INDEXCTL
280
    0
  9
$HIDETEXT
280
    1
  9
$XCLIPFRAME
290
    0
  9
$HALOGAP
280
    0
  9
$OBSCOLOR
 70
  257
  9
$OBSLTYPE
280
    0
  9
$INTERSECTIONDISPLAY
280
    0
  9
$INTERSECTIONCOLOR
 70
  257
  9
$DIMASSOC
280
    0
  9
$PROJECTNAME
  1

  9
$CAMERADISPLAY
290
    0
  9
$LENSLENGTH
 40
50
  9
$CAMERAHEIGHT
 40
0
  9
$STEPSPERSEC
 40
2
  9
$STEPSIZE
 40
50
  9
$3DDWFPREC
 40
2
  9
$PSOLWIDTH
 40
5
  9
$PSOLHEIGHT
 40
80
  9
$LOFTANG1
 40
1.570796326794897
  9
$LOFTANG2
 40
1.570796326794897
  9
$LOFTMAG1
 40
0
  9
$LOFTMAG2
 40
0
  9
$LOFTPARAM
 70
    7
  9
$LOFTNORMALS
280
    1
  9
$LATITUDE
 40
1
  9
$LONGITUDE
 40
1
  9
$NORTHDIRECTION
 40
0
  9
$TIMEZONE
 70
-8000
  9
$LIGHTGLYPHDISPLAY
280
    1
  9
$TILEMODELIGHTSYNCH
280
    1
  9
$SOLIDHIST
280
    1
  9
$SHOWHIST
280
    1
  9
$DWFFRAME
280
    2
  9
$DGNFRAME
280
    0
  9
$REALWORLDSCALE
290
    1
  9
$INTERFERECOLOR
 62
    1
  9
$CSHADOW
280
    0
  9
$SHADOWPLANELOCATION
 40
0
  0
ENDSEC
  0
SECTION
  2
CLASSES
  0
ENDSEC
  0
SECTION
  2
TABLES
  0
TABLE
  2
VPORT
  5
8
330
0
100
AcDbSymbolTable
 70
    1
  0
VPORT
  5
31
330
2
100
AcDbSymbolTableRecord
100
AcDbViewportTableRecord
  2
*ACTIVE
 70
    0
 10
0
 20
0
 11
1
 21
1
 12
38.42412344582512
 22
39.35272734360144
 13
0
 23
0
 14
10
 24
10
 15
10
 25
10
 16
0
 26
0
 36
1
 17
0
 27
0
 37
0
 40
82.01831183602646
 41
0.9547123623011016
 42
50
 43
0
 44
0
 50
0
 51
0
 71
    0
 72
  100
 73
    1
 74
    3
 75
    0
 76
    1
 77
    0
 78
    0
281
    0
 65
    1
110
0
120
0
130
0
111
1
121
0
131
0
112
0
122
1
132
0
 79
    0
146
0
348
10020
 60
    7
 61
    5
292
1
282
    1
141
0
142
0
 63
  250
421
3358443
  0
ENDTAB
  0
TABLE
  2
LTYPE
  5
5
330
0
100
AcDbSymbolTable
 70
    4
  0
LTYPE
  5
14
330
5
100
AcDbSymbolTableRecord
100
AcDbLinetypeTableRecord
  2
ByBlock
 70
    0
  3

 72
   65
 73
    0
 40
0
  0
LTYPE
  5
15
330
5
100
AcDbSymbolTableRecord
100
AcDbLinetypeTableRecord
  2
ByLayer
 70
    0
  3

 72
   65
 73
    0
 40
0
  0
LTYPE
  5
16
330
5
100
AcDbSymbolTableRecord
100
AcDbLinetypeTableRecord
  2
Continuous
 70
    0
  3
Solid line
 72
   65
 73
    0
 40
0
  0
LTYPE
  5
32
330
5
100
AcDbSymbolTableRecord
100
AcDbLinetypeTableRecord
  2
DOT
 70
    0
  3
Dot . . . . . . . . . . . . . . . . . . . . . .
 72
   65
 73
    2
 40
6.35
 49
0
 74
    0
 49
-6.35
 74
    0
  0
LTYPE
  5
33
330
5
100
AcDbSymbolTableRecord
100
AcDbLinetypeTableRecord
  2
DOTTINY
 70
    0
  3
Dot (.15x) .....................................
 72
   65
 73
    2
 40
0.9525
 49
0
 74
    0
 49
-0.9525
 74
    0
  0
LTYPE
  5
34
330
5
100
AcDbSymbolTableRecord
100
AcDbLinetypeTableRecord
  2
DOT2
 70
    0
  3
Dot (.5x) .....................................
 72
   65
 73
    2
 40
3.175
 49
0
 74
    0
 49
-3.175
 74
    0
  0
LTYPE
  5
35
330
5
100
AcDbSymbolTableRecord
100
AcDbLinetypeTableRecord
  2
DOTX2
 70
    0
  3
Dot (2x) .  .  .  .  .  .  .  .  .  .  .  .  .
 72
   65
 73
    2
 40
12.7
 49
0
 74
    0
 49
-12.7
 74
    0
  0
LTYPE
  5
36
330
5
100
AcDbSymbolTableRecord
100
AcDbLinetypeTableRecord
  2
DASHED
 70
    0
  3
Dashed _ _ _ _ _ _ _ _ _ _ _ _ _ _ _ _ _
 72
   65
 73
    2
 40
19.05
 49
12.7
 74
    0
 49
-6.35
 74
    0
  0
LTYPE
  5
37
330
5
100
AcDbSymbolTableRecord
100
AcDbLinetypeTableRecord
  2
DASHEDTINY
 70
    0
  3
Dashed (.15x) _ _ _ _ _ _ _ _ _ _ _ _ _ _ _ _ _
 72
   65
 73
    2
 40
2.8575
 49
1.905
 74
    0
 49
-0.9525
 74
    0
  0
LTYPE
  5
38
330
5
100
AcDbSymbolTableRecord
100
AcDbLinetypeTableRecord
  2
DASHED2
 70
    0
  3
Dashed (.5x) _ _ _ _ _ _ _ _ _ _ _ _ _ _ _ _ _
 72
   65
 73
    2
 40
9.524999999999999
 49
6.35
 74
    0
 49
-3.175
 74
    0
  0
LTYPE
  5
39
330
5
100
AcDbSymbolTableRecord
100
AcDbLinetypeTableRecord
  2
DASHEDX2
 70
    0
  3
Dashed (2x) ____  ____  ____  ____  ____  ___
 72
   65
 73
    2
 40
38.09999999999999
 49
25.4
 74
    0
 49
-12.7
 74
    0
  0
LTYPE
  5
3A
330
5
100
AcDbSymbolTableRecord
100
AcDbLinetypeTableRecord
  2
DASHDOT
 70
    0
  3
Dash dot __ . __ . __ . __ . __ . __ . __ . __
 72
   65
 73
    4
 40
25.4
 49
12.7
 74
    0
 49
-6.35
 74
    0
 49
0
 74
    0
 49
-6.35
 74
    0
  0
LTYPE
  5
3B
330
5
100
AcDbSymbolTableRecord
100
AcDbLinetypeTableRecord
  2
DASHDOTTINY
 70
    0
  3
Dash dot (.15x) _._._._._._._._._._._._._._._.
 72
   65
 73
    4
 40
3.81
 49
1.905
 74
    0
 49
-0.9525
 74
    0
 49
0
 74
    0
 49
-0.9525
 74
    0
  0
LTYPE
  5
3C
330
5
100
AcDbSymbolTableRecord
100
AcDbLinetypeTableRecord
  2
DASHDOT2
 70
    0
  3
Dash dot (.5x) _._._._._._._._._._._._._._._.
 72
   65
 73
    4
 40
12.7
 49
6.35
 74
    0
 49
-3.175
 74
    0
 49
0
 74
    0
 49
-3.175
 74
    0
  0
LTYPE
  5
3D
330
5
100
AcDbSymbolTableRecord
100
AcDbLinetypeTableRecord
  2
DASHDOTX2
 70
    0
  3
Dash dot (2x) ____  .  ____  .  ____  .  ___
 72
   65
 73
    4
 40
50.8
 49
25.4
 74
    0
 49
-12.7
 74
    0
 49
0
 74
    0
 49
-12.7
 74
    0
  0
LTYPE
  5
3E
330
5
100
AcDbSymbolTableRecord
100
AcDbLinetypeTableRecord
  2
DIVIDE
 70
    0
  3
Divide ____ . . ____ . . ____ . . ____ . . ____
 72
   65
 73
    6
 40
31.75
 49
12.7
 74
    0
 49
-6.35
 74
    0
 49
0
 74
    0
 49
-6.35
 74
    0
 49
0
 74
    0
 49
-6.35
 74
    0
  0
LTYPE
  5
3F
330
5
100
AcDbSymbolTableRecord
100
AcDbLinetypeTableRecord
  2
DIVIDETINY
 70
    0
  3
Divide (.15x) __..__..__..__..__..__..__..__.._
 72
   65
 73
    6
 40
4.7625
 49
1.905
 74
    0
 49
-0.9525
 74
    0
 49
0
 74
    0
 49
-0.9525
 74
    0
 49
0
 74
    0
 49
-0.9525
 74
    0
  0
LTYPE
  5
40
330
5
100
AcDbSymbolTableRecord
100
AcDbLinetypeTableRecord
  2
DIVIDE2
 70
    0
  3
Divide (.5x) __..__..__..__..__..__..__..__.._
 72
   65
 73
    6
 40
15.875
 49
6.35
 74
    0
 49
-3.175
 74
    0
 49
0
 74
    0
 49
-3.175
 74
    0
 49
0
 74
    0
 49
-3.175
 74
    0
  0
LTYPE
  5
41
330
5
100
AcDbSymbolTableRecord
100
AcDbLinetypeTableRecord
  2
DIVIDEX2
 70
    0
  3
Divide (2x) ________  .  .  ________  .  .  _
 72
   65
 73
    6
 40
63.5
 49
25.4
 74
    0
 49
-12.7
 74
    0
 49
0
 74
    0
 49
-12.7
 74
    0
 49
0
 74
    0
 49
-12.7
 74
    0
  0
LTYPE
  5
42
330
5
100
AcDbSymbolTableRecord
100
AcDbLinetypeTableRecord
  2
BORDER
 70
    0
  3
Border __ __ . __ __ . __ __ . __ __ . __ __ .
 72
   65
 73
    6
 40
44.45
 49
12.7
 74
    0
 49
-6.35
 74
    0
 49
12.7
 74
    0
 49
-6.35
 74
    0
 49
0
 74
    0
 49
-6.35
 74
    0
  0
LTYPE
  5
43
330
5
100
AcDbSymbolTableRecord
100
AcDbLinetypeTableRecord
  2
BORDERTINY
 70
    0
  3
Border (.15x) __.__.__.__.__.__.__.__.__.__.__.
 72
   65
 73
    6
 40
6.6675
 49
1.905
 74
    0
 49
-0.9525
 74
    0
 49
1.905
 74
    0
 49
-0.9525
 74
    0
 49
0
 74
    0
 49
-0.9525
 74
    0
  0
LTYPE
  5
44
330
5
100
AcDbSymbolTableRecord
100
AcDbLinetypeTableRecord
  2
BORDER2
 70
    0
  3
Border (.5x) __.__.__.__.__.__.__.__.__.__.__.
 72
   65
 73
    6
 40
22.225
 49
6.35
 74
    0
 49
-3.175
 74
    0
 49
6.35
 74
    0
 49
-3.175
 74
    0
 49
0
 74
    0
 49
-3.175
 74
    0
  0
LTYPE
  5
45
330
5
100
AcDbSymbolTableRecord
100
AcDbLinetypeTableRecord
  2
BORDERX2
 70
    0
  3
Border (2x) ____  ____  .  ____  ____  .  ___
 72
   65
 73
    6
 40
88.89999999999999
 49
25.4
 74
    0
 49
-12.7
 74
    0
 49
25.4
 74
    0
 49
-12.7
 74
    0
 49
0
 74
    0
 49
-12.7
 74
    0
  0
LTYPE
  5
46
330
5
100
AcDbSymbolTableRecord
100
AcDbLinetypeTableRecord
  2
CENTER
 70
    0
  3
Center ____ _ ____ _ ____ _ ____ _ ____ _ ____
 72
   65
 73
    4
 40
50.8
 49
31.75
 74
    0
 49
-6.35
 74
    0
 49
6.35
 74
    0
 49
-6.35
 74
    0
  0
LTYPE
  5
47
330
5
100
AcDbSymbolTableRecord
100
AcDbLinetypeTableRecord
  2
CENTERTINY
 70
    0
  3
Center (.15x) ___ _ ___ _ ___ _ ___ _ ___ _ ___
 72
   65
 73
    4
 40
7.619999999999999
 49
4.7625
 74
    0
 49
-0.9525
 74
    0
 49
0.9525
 74
    0
 49
-0.9525
 74
    0
  0
LTYPE
  5
48
330
5
100
AcDbSymbolTableRecord
100
AcDbLinetypeTableRecord
  2
CENTER2
 70
    0
  3
Center (.5x) ___ _ ___ _ ___ _ ___ _ ___ _ ___
 72
   65
 73
    4
 40
28.575
 49
19.05
 74
    0
 49
-3.175
 74
    0
 49
3.175
 74
    0
 49
-3.175
 74
    0
  0
LTYPE
  5
49
330
5
100
AcDbSymbolTableRecord
100
AcDbLinetypeTableRecord
  2
CENTERX2
 70
    0
  3
Center (2x) ________  __  ________  __  _____
 72
   65
 73
    4
 40
101.6
 49
63.5
 74
    0
 49
-12.7
 74
    0
 49
12.7
 74
    0
 49
-12.7
 74
    0
  0
ENDTAB
  0
TABLE
  2
LAYER
  5
2
330
0
100
AcDbSymbolTable
 70
    1
  0
LAYER
  5
10
330
2
100
AcDbSymbolTableRecord
100
AcDbLayerTableRecord
  2
0
 70
    0
 62
    7
  6
CONTINUOUS
370
   -3
390
F
  0
LAYER
  5
4A
330
2
100
AcDbSymbolTableRecord
100
AcDbLayerTableRecord
  2
bottom-support
 70
    0
 62
    7
  6
CONTINUOUS
370
    0
390
F
  0
LAYER
  5
4B
330
2
100
AcDbSymbolTableRecord
100
AcDbLayerTableRecord
  2
cable
 70
    1
 62
    7
  6
CONTINUOUS
370
    0
390
F
  0
LAYER
  5
4C
330
2
100
AcDbSymbolTableRecord
100
AcDbLayerTableRecord
  2
cable-chamfer
 70
    1
 62
    7
  6
CONTINUOUS
370
    0
390
F
  0
LAYER
  5
4D
330
2
100
AcDbSymbolTableRecord
100
AcDbLayerTableRecord
  2
cable-shape
 70
    1
 62
    7
  6
CONTINUOUS
370
    0
390
F
  0
LAYER
  5
4E
330
2
100
AcDbSymbolTableRecord
100
AcDbLayerTableRecord
  2
outline-profile
 70
    1
 62
    7
  6
CONTINUOUS
370
    0
390
F
  0
LAYER
  5
4F
330
2
100
AcDbSymbolTableRecord
100
AcDbLayerTableRecord
  2
outline-profile-2
 70
    1
 62
    7
  6
CONTINUOUS
370
    0
390
F
  0
LAYER
  5
50
330
2
100
AcDbSymbolTableRecord
100
AcDbLayerTableRecord
  2
plate-support
 70
    0
 62
    7
  6
CONTINUOUS
370
    0
390
F
  0
LAYER
  5
51
330
2
100
AcDbSymbolTableRecord
100
AcDbLayerTableRecord
  2
profile-2-handle
 70
    1
 62
    7
  6
CONTINUOUS
370
    0
390
F
  0
LAYER
  5
52
330
2
100
AcDbSymbolTableRecord
100
AcDbLayerTableRecord
  2
side-view
 70
    1
 62
    7
  6
CONTINUOUS
370
    0
390
F
  0
ENDTAB
  0
TABLE
  2
STYLE
  5
3
330
0
100
AcDbSymbolTable
 70
    3
  0
STYLE
  5
53
330
2
100
AcDbSymbolTableRecord
100
AcDbTextStyleTableRecord
  2
Standard
 70
    0
 40
0
 41
1
 50
0
 71
    0
 42
1
  3
txt
  4

  0
ENDTAB
  0
TABLE
  2
VIEW
  5
6
330
0
100
AcDbSymbolTable
 70
    0
  0
ENDTAB
  0
TABLE
  2
UCS
  5
7
330
0
100
AcDbSymbolTable
 70
    0
  0
ENDTAB
  0
TABLE
  2
APPID
  5
9
330
0
100
AcDbSymbolTable
 70
    1
  0
APPID
  5
12
330
9
100
AcDbSymbolTableRecord
100
AcDbRegAppTableRecord
  2
ACAD
 70
    0
  0
APPID
  5
54
330
9
100
AcDbSymbolTableRecord
100
AcDbRegAppTableRecord
  2
LibreCad
 70
    0
  0
ENDTAB
  0
TABLE
  2
DIMSTYLE
  5
A
330
0
100
AcDbSymbolTable
 70
    1
100
AcDbDimStyleTable
 71
    1
  0
DIMSTYLE
105
55
330
A
100
AcDbSymbolTableRecord
100
AcDbDimStyleTableRecord
  2
Standard
 70
    0
 40
1
 41
2.5
 42
0.625
 43
0.38
 44
1.25
 45
0
 46
0
 47
0
 48
0
140
2.5
141
0.09
142
0
143
25.4
144
1
145
0
146
1
147
0.625
148
0
 71
    0
 72
    0
 73
    0
 74
    1
 75
    0
 76
    0
 77
    0
 78
    0
 79
    0
170
    0
171
    2
172
    0
173
    0
174
    0
175
    0
176
    0
177
    0
178
    0
179
    0
271
    4
272
    4
273
    2
274
    2
275
    0
276
    0
277
    2
278
   46
279
    0
280
    0
281
    0
282
    0
283
    1
284
    0
285
    0
286
    0
288
    0
289
    3
340
Standard
341

371
   -2
372
   -2
  0
ENDTAB
  0
TABLE
  2
BLOCK_RECORD
  5
1
330
0
100
AcDbSymbolTable
 70
    2
  0
BLOCK_RECORD
  5
1F
330
1
100
AcDbSymbolTableRecord
100
AcDbBlockTableRecord
  2
*Model_Space
 70
    0
280
    1
281
    0
  0
BLOCK_RECORD
  5
1E
330
1
100
AcDbSymbolTableRecord
100
AcDbBlockTableRecord
  2
*Paper_Space
 70
    0
280
    1
281
    0
  0
BLOCK_RECORD
  5
56
330
1
100
AcDbSymbolTableRecord
100
AcDbBlockTableRecord
  2
*D4
 70
    0
280
    1
281
    0
  0
BLOCK_RECORD
  5
59
330
1
100
AcDbSymbolTableRecord
100
AcDbBlockTableRecord
  2
*D7
 70
    0
280
    1
281
    0
  0
BLOCK_RECORD
  5
5C
330
1
100
AcDbSymbolTableRecord
100
AcDbBlockTableRecord
  2
*D10
 70
    0
280
    1
281
    0
  0
BLOCK_RECORD
  5
5F
330
1
100
AcDbSymbolTableRecord
100
AcDbBlockTableRecord
  2
*D2
 70
    0
280
    1
281
    0
  0
BLOCK_RECORD
  5
62
330
1
100
AcDbSymbolTableRecord
100
AcDbBlockTableRecord
  2
*D5
 70
    0
280
    1
281
    0
  0
BLOCK_RECORD
  5
65
330
1
100
AcDbSymbolTableRecord
100
AcDbBlockTableRecord
  2
*D8
 70
    0
280
    1
281
    0
  0
BLOCK_RECORD
  5
68
330
1
100
AcDbSymbolTableRecord
100
AcDbBlockTableRecord
  2
*D1
 70
    0
280
    1
281
    0
  0
BLOCK_RECORD
  5
6B
330
1
100
AcDbSymbolTableRecord
100
AcDbBlockTableRecord
  2
*D3
 70
    0
280
    1
281
    0
  0
BLOCK_RECORD
  5
6E
330
1
100
AcDbSymbolTableRecord
100
AcDbBlockTableRecord
  2
*D6
 70
    0
280
    1
281
    0
  0
BLOCK_RECORD
  5
71
330
1
100
AcDbSymbolTableRecord
100
AcDbBlockTableRecord
  2
*D9
 70
    0
280
    1
281
    0
  0
ENDTAB
  0
ENDSEC
  0
SECTION
  2
BLOCKS
  0
BLOCK
  5
20
330
1F
100
AcDbEntity
  8
0
100
AcDbBlockBegin
  2
*Model_Space
 70
    0
 10
0
 20
0
 30
0
  3
*Model_Space
  1

  0
ENDBLK
  5
21
330
1F
100
AcDbEntity
  8
0
100
AcDbBlockEnd
  0
BLOCK
  5
1C
330
1B
100
AcDbEntity
  8
0
100
AcDbBlockBegin
  2
*Paper_Space
 70
    0
 10
0
 20
0
 30
0
  3
*Paper_Space
  1

  0
ENDBLK
  5
1D
330
1F
100
AcDbEntity
  8
0
100
AcDbBlockEnd
  0
BLOCK
  5
57
330
56
100
AcDbEntity
  8
0
100
AcDbBlockBegin
  2
*D4
 70
    1
 10
0
 20
0
  3
*D4
  1

  0
LINE
  5
74
100
AcDbEntity
  8
side-view
  6
ByBlock
 62
    0
370
   -2
100
AcDbLine
 10
-35
 20
-4.999999999999996
 11
-35
 21
9.599999999999998
  0
SOLID
  5
75
100
AcDbEntity
  8
side-view
  6
ByBlock
 62
    0
370
   -2
100
AcDbTrace
 10
-35
 20
4.440892098500626e-15
 30
0
 11
-34.58371534222716
 21
-2.499999999999996
 31
0
 12
-35.41628465777284
 22
-2.499999999999996
 32
0
 13
-35.41628465777284
 23
-2.499999999999996
 33
0
  0
SOLID
  5
76
100
AcDbEntity
  8
side-view
  6
ByBlock
 62
    0
370
   -2
100
AcDbTrace
 10
-35
 20
4.599999999999998
 30
0
 11
-35.41628465777284
 21
7.099999999999998
 31
0
 12
-34.58371534222716
 22
7.099999999999998
 32
0
 13
-34.58371534222716
 23
7.099999999999998
 33
0
  0
MTEXT
  5
77
100
AcDbEntity
  8
side-view
  6
CONTINUOUS
 62
    0
370
   -2
100
AcDbMText
 10
-36
 20
2
 30
0
 40
2.5
 41
4.444444444444561
 71
    5
 72
    1
  1
mid
  7
STANDARD
210
0
220
0
230
1
 50
270
 73
    2
 44
1
  0
LINE
  5
78
100
AcDbEntity
  8
side-view
  6
ByBlock
 62
    0
370
   -2
100
AcDbLine
 10
1.703934031679996
 20
-3.476173253853791e-15
 11
-36.25
 21
4.593972948394045e-15
  0
LINE
  5
79
100
AcDbEntity
  8
side-view
  6
ByBlock
 62
    0
370
   -2
100
AcDbLine
 10
1.703934031679996
 20
4.599999999999991
 11
-36.25
 21
4.599999999999998
  0
ENDBLK
  5
58
330
56
100
AcDbEntity
  8
0
100
AcDbBlockEnd
  0
BLOCK
  5
5A
330
59
100
AcDbEntity
  8
0
100
AcDbBlockBegin
  2
*D7
 70
    1
 10
0
 20
0
  3
*D7
  1

  0
LINE
  5
7A
100
AcDbEntity
  8
side-view
  6
ByBlock
 62
    0
370
   -2
100
AcDbLine
 10
-32
 20
-6.500000000000004
 11
-32
 21
5.000000000000004
  0
SOLID
  5
7B
100
AcDbEntity
  8
side-view
  6
ByBlock
 62
    0
370
   -2
100
AcDbTrace
 10
-32
 20
-1.500000000000004
 30
0
 11
-31.58371534222716
 21
-4.000000000000004
 31
0
 12
-32.41628465777284
 22
-4.000000000000004
 32
0
 13
-32.41628465777284
 23
-4.000000000000004
 33
0
  0
SOLID
  5
7C
100
AcDbEntity
  8
side-view
  6
ByBlock
 62
    0
370
   -2
100
AcDbTrace
 10
-32
 20
3.764938731978871e-15
 30
0
 11
-32.41628465777284
 21
2.500000000000004
 31
0
 12
-31.58371534222716
 22
2.500000000000004
 32
0
 13
-31.58371534222716
 23
2.500000000000004
 33
0
  0
MTEXT
  5
7D
100
AcDbEntity
  8
side-view
  6
CONTINUOUS
 62
    0
370
   -2
100
AcDbMText
 10
-30.125
 20
-4.208333333333395
 30
0
 40
2.5
 41
4.166666666666783
 71
    5
 72
    1
  1
bpl
  7
STANDARD
210
0
220
0
230
1
 50
270
 73
    2
 44
1
  0
LINE
  5
7E
100
AcDbEntity
  8
side-view
  6
ByBlock
 62
    0
370
   -2
100
AcDbLine
 10
1.703934031679996
 20
-1.500000000000011
 11
-33.25
 21
-1.500000000000003
  0
LINE
  5
7F
100
AcDbEntity
  8
side-view
  6
ByBlock
 62
    0
370
   -2
100
AcDbLine
 10
1.703934031679996
 20
-3.476173253853791e-15
 11
-33.25
 21
3.91801958187229e-15
  0
ENDBLK
  5
5B
330
59
100
AcDbEntity
  8
0
100
AcDbBlockEnd
  0
BLOCK
  5
5D
330
5C
100
AcDbEntity
  8
0
100
AcDbBlockBegin
  2
*D10
 70
    1
 10
0
 20
0
  3
*D10
  1

  0
LINE
  5
80
100
AcDbEntity
  8
cable
  6
ByBlock
 62
    0
370
   -2
100
AcDbLine
 10
18.60000006958619
 20
-30
 11
0
 21
-30
  0
SOLID
  5
81
100
AcDbEntity
  8
cable
  6
ByBlock
 62
    0
370
   -2
100
AcDbTrace
 10
18.60000006958619
 20
-30
 30
0
 11
16.10000006958619
 21
-30.41628465777284
 31
0
 12
16.10000006958619
 22
-29.58371534222716
 32
0
 13
16.10000006958619
 23
-29.58371534222716
 33
0
  0
SOLID
  5
82
100
AcDbEntity
  8
cable
  6
ByBlock
 62
    0
370
   -2
100
AcDbTrace
 10
0
 20
-30
 30
0
 11
2.5
 21
-29.58371534222716
 31
0
 12
2.5
 22
-30.41628465777284
 32
0
 13
2.5
 23
-30.41628465777284
 33
0
  0
MTEXT
  5
83
100
AcDbEntity
  8
cable
  6
CONTINUOUS
 62
    0
370
   -2
100
AcDbMText
 10
9.300000034793095
 20
-28.125
 30
0
 40
2.5
 41
11.6666666666669
 71
    5
 72
    1
  1
x0cable
  7
STANDARD
210
0
220
0
230
1
 50
360
 73
    2
 44
1
  0
LINE
  5
84
100
AcDbEntity
  8
cable
  6
ByBlock
 62
    0
370
   -2
100
AcDbLine
 10
18.60000006958619
 20
72.62526850907879
 11
18.60000006958619
 21
-31.25
  0
LINE
  5
85
100
AcDbEntity
  8
cable
  6
ByBlock
 62
    0
370
   -2
100
AcDbLine
 10
-1.148106374200643e-16
 20
-0.625
 11
-2.296212748401287e-16
 21
-31.25
  0
ENDBLK
  5
5E
330
5C
100
AcDbEntity
  8
0
100
AcDbBlockEnd
  0
BLOCK
  5
60
330
5F
100
AcDbEntity
  8
0
100
AcDbBlockBegin
  2
*D2
 70
    1
 10
0
 20
0
  3
*D2
  1

  0
LINE
  5
86
100
AcDbEntity
  8
side-view
  6
ByBlock
 62
    0
370
   -2
100
AcDbLine
 10
-15.25000062215502
 20
6.199999999999994
 11
-15.25000062215502
 21
12.92162243028962
  0
SOLID
  5
87
100
AcDbEntity
  8
side-view
  6
ByBlock
 62
    0
370
   -2
100
AcDbTrace
 10
-15.25000062215502
 20
6.199999999999994
 30
0
 11
-15.66628527992786
 21
8.699999999999994
 31
0
 12
-14.83371596438218
 22
8.699999999999994
 32
0
 13
-14.83371596438218
 23
8.699999999999994
 33
0
  0
SOLID
  5
88
100
AcDbEntity
  8
side-view
  6
ByBlock
 62
    0
370
   -2
100
AcDbTrace
 10
-15.25000062215502
 20
12.92162243028962
 30
0
 11
-14.83371596438218
 21
10.42162243028962
 31
0
 12
-15.66628527992786
 22
10.42162243028962
 32
0
 13
-15.66628527992786
 23
10.42162243028962
 33
0
  0
MTEXT
  5
89
100
AcDbEntity
  8
side-view
  6
CONTINUOUS
 62
    0
370
   -2
100
AcDbMText
 10
-13.37500062215502
 20
9.560811215144806
 30
0
 40
2.5
 41
5
 71
    5
 72
    1
  1
key
  7
STANDARD
210
0
220
0
230
1
 50
270
 73
    2
 44
1
  0
LINE
  5
8A
100
AcDbEntity
  8
side-view
  6
ByBlock
 62
    0
370
   -2
100
AcDbLine
 10
4.4143422316799
 20
6.199999999999992
 11
-16.50000062215502
 21
6.199999999999994
  0
LINE
  5
8B
100
AcDbEntity
  8
side-view
  6
ByBlock
 62
    0
370
   -2
100
AcDbLine
 10
-2.124999999999047
 20
12.92162243028962
 11
-16.50000062215502
 21
12.92162243028962
  0
ENDBLK
  5
61
330
5F
100
AcDbEntity
  8
0
100
AcDbBlockEnd
  0
BLOCK
  5
63
330
62
100
AcDbEntity
  8
0
100
AcDbBlockBegin
  2
*D5
 70
    1
 10
0
 20
0
  3
*D5
  1

  0
LINE
  5
8C
100
AcDbEntity
  8
cable
  6
ByBlock
 62
    0
370
   -2
100
AcDbLine
 10
-38.99999999999999
 20
75.30026852766763
 11
-39
 21
2.775557561562891e-15
  0
SOLID
  5
8D
100
AcDbEntity
  8
cable
  6
ByBlock
 62
    0
370
   -2
100
AcDbTrace
 10
-38.99999999999999
 20
75.30026852766763
 30
0
 11
-38.58371534222715
 21
72.80026852766763
 31
0
 12
-39.41628465777283
 22
72.80026852766763
 32
0
 13
-39.41628465777283
 23
72.80026852766763
 33
0
  0
SOLID
  5
8E
100
AcDbEntity
  8
cable
  6
ByBlock
 62
    0
370
   -2
100
AcDbTrace
 10
-39
 20
2.775557561562891e-15
 30
0
 11
-39.41628465777284
 21
2.500000000000003
 31
0
 12
-38.58371534222716
 22
2.500000000000003
 32
0
 13
-38.58371534222716
 23
2.500000000000003
 33
0
  0
MTEXT
  5
8F
100
AcDbEntity
  8
cable
  6
CONTINUOUS
 62
    0
370
   -2
100
AcDbMText
 10
-40.875
 20
37.65013426383381
 30
0
 40
2.5
 41
15.27777777777801
 71
    5
 72
    1
  1
delta_cy
  7
STANDARD
210
0
220
0
230
1
 50
90
 73
    2
 44
1
  0
LINE
  5
90
100
AcDbEntity
  8
cable
  6
ByBlock
 62
    0
370
   -2
100
AcDbLine
 10
-0.6248958923680654
 20
75.30026852766763
 11
-40.24999999999999
 21
75.30026852766763
  0
LINE
  5
91
100
AcDbEntity
  8
cable
  6
ByBlock
 62
    0
370
   -2
100
AcDbLine
 10
-0.625
 20
7.654042494670958e-17
 11
-40.25
 21
2.928638411456311e-15
  0
ENDBLK
  5
64
330
62
100
AcDbEntity
  8
0
100
AcDbBlockEnd
  0
BLOCK
  5
66
330
65
100
AcDbEntity
  8
0
100
AcDbBlockBegin
  2
*D8
 70
    1
 10
0
 20
0
  3
*D8
  1

  0
LINE
  5
92
100
AcDbEntity
  8
side-view
  6
ByBlock
 62
    0
370
   -2
100
AcDbLine
 10
-23
 20
-0.4000000000000048
 11
-23
 21
11.2
  0
SOLID
  5
93
100
AcDbEntity
  8
side-view
  6
ByBlock
 62
    0
370
   -2
100
AcDbTrace
 10
-23
 20
4.599999999999995
 30
0
 11
-22.58371534222716
 21
2.099999999999995
 31
0
 12
-23.41628465777284
 22
2.099999999999995
 32
0
 13
-23.41628465777284
 23
2.099999999999995
 33
0
  0
SOLID
  5
94
100
AcDbEntity
  8
side-view
  6
ByBlock
 62
    0
370
   -2
100
AcDbTrace
 10
-23
 20
6.199999999999997
 30
0
 11
-23.41628465777284
 21
8.699999999999996
 31
0
 12
-22.58371534222716
 22
8.699999999999996
 32
0
 13
-22.58371534222716
 23
8.699999999999996
 33
0
  0
MTEXT
  5
95
100
AcDbEntity
  8
side-view
  6
CONTINUOUS
 62
    0
370
   -2
100
AcDbMText
 10
-21.125
 20
2.03055555555555
 30
0
 40
2.5
 41
3.888888888888889
 71
    5
 72
    1
  1
tpl
  7
STANDARD
210
0
220
0
230
1
 50
270
 73
    2
 44
1
  0
LINE
  5
96
100
AcDbEntity
  8
side-view
  6
ByBlock
 62
    0
370
   -2
100
AcDbLine
 10
1.703934031679996
 20
4.599999999999991
 11
-24.25
 21
4.599999999999995
  0
LINE
  5
97
100
AcDbEntity
  8
side-view
  6
ByBlock
 62
    0
370
   -2
100
AcDbLine
 10
1.703934031679996
 20
6.199999999999992
 11
-24.25
 21
6.199999999999997
  0
ENDBLK
  5
67
330
65
100
AcDbEntity
  8
0
100
AcDbBlockEnd
  0
BLOCK
  5
69
330
68
100
AcDbEntity
  8
0
100
AcDbBlockBegin
  2
*D1
 70
    1
 10
0
 20
0
  3
*D1
  1

  0
LINE
  5
98
100
AcDbEntity
  8
cable
  6
ByBlock
 62
    0
370
   -2
100
AcDbLine
 10
75.3000001392171
 20
-40
 11
0
 21
-40
  0
SOLID
  5
99
100
AcDbEntity
  8
cable
  6
ByBlock
 62
    0
370
   -2
100
AcDbTrace
 10
75.3000001392171
 20
-40
 30
0
 11
72.8000001392171
 21
-40.41628465777284
 31
0
 12
72.8000001392171
 22
-39.58371534222716
 32
0
 13
72.8000001392171
 23
-39.58371534222716
 33
0
  0
SOLID
  5
9A
100
AcDbEntity
  8
cable
  6
ByBlock
 62
    0
370
   -2
100
AcDbTrace
 10
0
 20
-40
 30
0
 11
2.5
 21
-39.58371534222716
 31
0
 12
2.5
 22
-40.41628465777284
 32
0
 13
2.5
 23
-40.41628465777284
 33
0
  0
MTEXT
  5
9B
100
AcDbEntity
  8
cable
  6
CONTINUOUS
 62
    0
370
   -2
100
AcDbMText
 10
37.65000006960855
 20
-38.125
 30
0
 40
2.5
 41
15.27777777777801
 71
    5
 72
    1
  1
delta_cx
  7
STANDARD
210
0
220
0
230
1
 50
360
 73
    2
 44
1
  0
LINE
  5
9C
100
AcDbEntity
  8
cable
  6
ByBlock
 62
    0
370
   -2
100
AcDbLine
 10
75.3000001392171
 20
-0.6250323696595372
 11
75.3000001392171
 21
-41.25
  0
LINE
  5
9D
100
AcDbEntity
  8
cable
  6
ByBlock
 62
    0
370
   -2
100
AcDbLine
 10
-1.148106374200643e-16
 20
-0.625
 11
-2.296212748401287e-16
 21
-41.25
  0
ENDBLK
  5
6A
330
68
100
AcDbEntity
  8
0
100
AcDbBlockEnd
  0
BLOCK
  5
6C
330
6B
100
AcDbEntity
  8
0
100
AcDbBlockBegin
  2
*D3
 70
    1
 10
0
 20
0
  3
*D3
  1

  0
LINE
  5
9E
100
AcDbEntity
  8
cable
  6
ByBlock
 62
    0
370
   -2
100
AcDbLine
 10
-42.99999999999999
 20
76.45026869280099
 11
-43
 21
3.108624468950438e-15
  0
SOLID
  5
9F
100
AcDbEntity
  8
cable
  6
ByBlock
 62
    0
370
   -2
100
AcDbTrace
 10
-42.99999999999999
 20
76.45026869280099
 30
0
 11
-42.58371534222715
 21
73.95026869280099
 31
0
 12
-43.41628465777283
 22
73.95026869280099
 32
0
 13
-43.41628465777283
 23
73.95026869280099
 33
0
  0
SOLID
  5
A0
100
AcDbEntity
  8
cable
  6
ByBlock
 62
    0
370
   -2
100
AcDbTrace
 10
-43
 20
3.108624468950438e-15
 30
0
 11
-43.41628465777284
 21
2.500000000000003
 31
0
 12
-42.58371534222716
 22
2.500000000000003
 32
0
 13
-42.58371534222716
 23
2.500000000000003
 33
0
  0
MTEXT
  5
A1
100
AcDbEntity
  8
cable
  6
CONTINUOUS
 62
    0
370
   -2
100
AcDbMText
 10
-44.875
 20
38.22513434640049
 30
0
 40
2.5
 41
11.6666666666669
 71
    5
 72
    1
  1
y0cable
  7
STANDARD
210
0
220
0
230
1
 50
90
 73
    2
 44
1
  0
LINE
  5
A2
100
AcDbEntity
  8
cable
  6
ByBlock
 62
    0
370
   -2
100
AcDbLine
 10
-1.074895013338704
 20
76.450268692801
 11
-44.24999999999999
 21
76.45026869280099
  0
LINE
  5
A3
100
AcDbEntity
  8
cable
  6
ByBlock
 62
    0
370
   -2
100
AcDbLine
 10
-0.625
 20
7.654042494670958e-17
 11
-44.25
 21
3.261705318843858e-15
  0
ENDBLK
  5
6D
330
6B
100
AcDbEntity
  8
0
100
AcDbBlockEnd
  0
BLOCK
  5
6F
330
6E
100
AcDbEntity
  8
0
100
AcDbBlockBegin
  2
*D6
 70
    1
 10
0
 20
0
  3
*D6
  1

  0
LINE
  5
A4
100
AcDbEntity
  8
side-view
  6
ByBlock
 62
    0
370
   -2
100
AcDbLine
 10
-26
 20
3.499999999999995
 11
-26
 21
-6.999999999999996
  0
SOLID
  5
A5
100
AcDbEntity
  8
side-view
  6
ByBlock
 62
    0
370
   -2
100
AcDbTrace
 10
-26
 20
-1.500000000000006
 30
0
 11
-26.41628465777284
 21
0.9999999999999944
 31
0
 12
-25.58371534222716
 22
0.9999999999999944
 32
0
 13
-25.58371534222716
 23
0.9999999999999944
 33
0
  0
SOLID
  5
A6
100
AcDbEntity
  8
side-view
  6
ByBlock
 62
    0
370
   -2
100
AcDbTrace
 10
-26
 20
-1.999999999999996
 30
0
 11
-25.58371534222716
 21
-4.499999999999996
 31
0
 12
-26.41628465777284
 22
-4.499999999999996
 32
0
 13
-26.41628465777284
 23
-4.499999999999996
 33
0
  0
MTEXT
  5
A7
100
AcDbEntity
  8
side-view
  6
CONTINUOUS
 62
    0
370
   -2
100
AcDbMText
 10
-27.875
 20
0.7916666666667584
 30
0
 40
2.5
 41
3.333333333333527
 71
    5
 72
    1
  1
lbl
  7
STANDARD
210
0
220
0
230
1
 50
90
 73
    2
 44
1
  0
LINE
  5
A8
100
AcDbEntity
  8
side-view
  6
ByBlock
 62
    0
370
   -2
100
AcDbLine
 10
4.4143422316799
 20
-1.500000000000011
 11
-27.25
 21
-1.500000000000005
  0
LINE
  5
A9
100
AcDbEntity
  8
side-view
  6
ByBlock
 62
    0
370
   -2
100
AcDbLine
 10
-1.624999999999044
 20
-2
 11
-27.25
 21
-1.999999999999995
  0
ENDBLK
  5
70
330
6E
100
AcDbEntity
  8
0
100
AcDbBlockEnd
  0
BLOCK
  5
72
330
71
100
AcDbEntity
  8
0
100
AcDbBlockBegin
  2
*D9
 70
    1
 10
0
 20
0
  3
*D9
  1

  0
LINE
  5
AA
100
AcDbEntity
  8
side-view
  6
ByBlock
 62
    0
370
   -2
100
AcDbLine
 10
18
 20
11.17611614408162
 11
18
 21
-5.000000000000001
  0
SOLID
  5
AB
100
AcDbEntity
  8
side-view
  6
ByBlock
 62
    0
370
   -2
100
AcDbTrace
 10
18
 20
6.176116144081619
 30
0
 11
17.58371534222716
 21
8.676116144081618
 31
0
 12
18.41628465777284
 22
8.676116144081618
 32
0
 13
18.41628465777284
 23
8.676116144081618
 33
0
  0
SOLID
  5
AC
100
AcDbEntity
  8
side-view
  6
ByBlock
 62
    0
370
   -2
100
AcDbTrace
 10
18
 20
-1.27897692436818e-15
 30
0
 11
18.41628465777284
 21
-2.500000000000001
 31
0
 12
17.58371534222716
 22
-2.500000000000001
 32
0
 13
17.58371534222716
 23
-2.500000000000001
 33
0
  0
MTEXT
  5
AD
100
AcDbEntity
  8
side-view
  6
CONTINUOUS
 62
    0
370
   -2
100
AcDbMText
 10
16.125
 20
13.88444947741526
 30
0
 40
2.5
 41
14.16666666666729
 71
    5
 72
    1
  1
nan-15-h
  7
STANDARD
210
0
220
0
230
1
 50
90
 73
    2
 44
1
  0
LINE
  5
AE
100
AcDbEntity
  8
side-view
  6
ByBlock
 62
    0
370
   -2
100
AcDbLine
 10
-1.825000622155075
 20
6.17611614408162
 11
19.25
 21
6.176116144081619
  0
LINE
  5
AF
100
AcDbEntity
  8
side-view
  6
ByBlock
 62
    0
370
   -2
100
AcDbLine
 10
0.625
 20
0
 11
19.25
 21
-1.27897692436818e-15
  0
ENDBLK
  5
73
330
71
100
AcDbEntity
  8
0
100
AcDbBlockEnd
  0
ENDSEC
  0
SECTION
  2
ENTITIES
  0
LINE
  5
B0
100
AcDbEntity
  8
outline-profile
  6
ByLayer
 62
  256
370
   -1
100
AcDbLine
 10
-5.90216631608584e-14
 20
13.20000000000004
 11
-1.699995327969179
 21
13.20000000000007
  0
LINE
  5
B1
100
AcDbEntity
  8
outline-profile
  6
ByLayer
 62
  256
370
   -1
100
AcDbLine
 10
-5.675305860434039e-14
 20
-1.899999999999943
 11
-1.699995735038883
 21
-1.899999999999943
  0
LINE
  5
B2
100
AcDbEntity
  8
outline-profile
  6
ByLayer
 62
  256
370
   -1
100
AcDbLine
 10
-5.90216631608584e-14
 20
13.20000000000004
 11
-5.675305860434039e-14
 21
-1.899999999999943
  0
ARC
  5
B3
100
AcDbEntity
  8
outline-profile
  6
ByLayer
 62
  256
370
   -1
100
AcDbCircle
 10
-1.700000000000059
 20
11.70000000000735
 40
1.5
100
AcDbArc
 50
89.99982154156589
 51
169.3797323457874
  0
ARC
  5
B4
100
AcDbEntity
  8
outline-profile
  6
ByLayer
 62
  256
370
   -1
100
AcDbCircle
 10
-1.70000000000006
 20
-0.3999999999999431
 40
1.500000000006063
100
AcDbArc
 50
190.6202676541989
 51
270.0001629095168
  0
ARC
  5
B5
100
AcDbEntity
  8
outline-profile
  6
ByLayer
 62
  256
370
   -1
100
AcDbCircle
 10
30.56476282440452
 20
5.650000000000044
 40
34.32708363706967
100
AcDbArc
 50
169.3797323457877
 51
190.6208504864487
  0
LINE
  5
B6
100
AcDbEntity
  8
profile-2-handle
  6
ByLayer
 62
  256
370
   -1
100
AcDbLine
 10
-2.996217018427175
 20
0
 11
-2.996217018427174
 21
12
  0
LINE
  5
B7
100
AcDbEntity
  8
profile-2-handle
  6
ByLayer
 62
  256
370
   -1
100
AcDbLine
 10
-2.996217018427174
 20
12
 11
-0.9999999999990419
 21
12
  0
LINE
  5
B8
100
AcDbEntity
  8
profile-2-handle
  6
ByLayer
 62
  256
370
   -1
100
AcDbLine
 10
-2.996217018427175
 20
0
 11
-0.9999999999990428
 21
0
  0
LINE
  5
B9
100
AcDbEntity
  8
profile-2-handle
  6
ByLayer
 62
  256
370
   -1
100
AcDbLine
 10
-0.9999999999990428
 20
0
 11
-0.9999999999990419
 21
12
  0
LINE
  5
BA
100
AcDbEntity
  8
cable
  6
ByLayer
 62
  256
370
   -1
100
AcDbLine
 10
0.8499993778449948
 20
-0.4499998065555821
 11
0.8499993778449948
 21
1.849895842859183
  0
LINE
  5
BB
100
AcDbEntity
  8
cable
  6
ByLayer
 62
  256
370
   -1
100
AcDbLine
 10
-0.4500006221550161
 20
-5.14998383823459
 11
-0.4500006221550161
 21
-0.4499998065555821
  0
LINE
  5
BC
100
AcDbEntity
  8
cable
  6
ByLayer
 62
  256
370
   -1
100
AcDbLine
 10
-15.25000062215502
 20
-0.4499998065555821
 11
-6.750000622155016
 21
-0.4499998065555821
  0
LINE
  5
BD
100
AcDbEntity
  8
cable
  6
ByLayer
 62
  256
370
   -1
100
AcDbLine
 10
-15.25000062215502
 20
-0.4499998065555821
 11
0.8499993778449948
 21
-0.4499998065555821
  0
LINE
  5
BE
100
AcDbEntity
  8
cable
  6
ByLayer
 62
  256
370
   -1
100
AcDbLine
 10
-15.25000062215502
 20
-0.4499998065555821
 11
-15.25000062215502
 21
1.849895842859183
  0
LINE
  5
BF
100
AcDbEntity
  8
cable
  6
ByLayer
 62
  256
370
   -1
100
AcDbLine
 10
-15.25000062215502
 20
1.849895842859183
 11
0.8499993778449948
 21
1.849895842859183
  0
LINE
  5
C0
100
AcDbEntity
  8
cable
  6
ByLayer
 62
  256
370
   -1
100
AcDbLine
 10
-0.4500006221550161
 20
-5.14998383823459
 11
-6.750000622155016
 21
-5.14998383823459
  0
LINE
  5
C1
100
AcDbEntity
  8
cable
  6
ByLayer
 62
  256
370
   -1
100
AcDbLine
 10
-6.750000622155016
 20
-5.14998383823459
 11
-6.750000622155016
 21
-0.4499998065555821
  0
LINE
  5
C2
100
AcDbEntity
  8
plate-support
  6
ByLayer
 62
  256
370
   -1
100
AcDbLine
 10
1.050000069586191
 20
74.25026850907879
 11
74.25000006958619
 21
74.25026850907879
  0
ARC
  5
C3
100
AcDbEntity
  8
plate-support
  6
ByLayer
 62
  256
370
   -1
100
AcDbCircle
 10
75.3000001392171
 20
-3.23696595372347e-05
 40
1
100
AcDbArc
 50
269.9999753699221
 51
7.921522778610554e-05
  0
LINE
  5
C4
100
AcDbEntity
  8
plate-support
  6
ByLayer
 62
  256
370
   -1
100
AcDbLine
 10
76.30000013921617
 20
-3.098709299481639e-05
 11
76.29989603157772
 21
75.30024227795211
  0
ARC
  5
C5
100
AcDbEntity
  8
plate-support
  6
ByLayer
 62
  256
370
   -1
100
AcDbCircle
 10
75.29989603157867
 20
75.30024089538557
 40
1
100
AcDbArc
 50
7.921522750621671e-05
 51
89.99997897453505
  0
LINE
  5
C6
100
AcDbEntity
  8
plate-support
  6
ByLayer
 62
  256
370
   -1
100
AcDbLine
 10
0.0001044745955254833
 20
76.30026852766755
 11
75.29989639854226
 21
76.30024089538551
  0
ARC
  5
C7
100
AcDbEntity
  8
plate-support
  6
ByLayer
 62
  256
370
   -1
100
AcDbCircle
 10
0.0001041076319345802
 20
75.30026852766763
 40
1
100
AcDbArc
 50
89.99997897453501
 51
179.9999207847725
  0
LINE
  5
C8
100
AcDbEntity
  8
plate-support
  6
ByLayer
 62
  256
370
   -1
100
AcDbLine
 10
75.29999970934115
 20
-1.000032369659445
 11
-4.298759530563245e-07
 21
-0.9999999999999076
  0
LINE
  5
C9
100
AcDbEntity
  8
plate-support
  6
ByLayer
 62
  256
370
   -1
100
AcDbLine
 10
-0.9999999999990442
 20
1.382566542806885e-06
 11
-0.9998958923671097
 21
75.30026991023416
  0
ARC
  5
CA
100
AcDbEntity
  8
plate-support
  6
ByLayer
 62
  256
370
   -1
100
AcDbCircle
 10
0
 20
0
 40
1
100
AcDbArc
 50
179.9999207847722
 51
269.9999753699221
  0
LINE
  5
CB
100
AcDbEntity
  8
outline-profile-2
  6
ByLayer
 62
  256
370
   -1
100
AcDbLine
 10
-2.450000622155076
 20
10.57195932265361
 11
-2.450000622155074
 21
1.780272965509629
  0
ARC
  5
CC
100
AcDbEntity
  8
outline-profile-2
  6
ByLayer
 62
  256
370
   -1
100
AcDbCircle
 10
-2.998906507896648
 20
13.25548680592649
 40
0.5
100
AcDbArc
 50
77.44299999999889
 51
167.443
  0
LINE
  5
CD
100
AcDbEntity
  8
outline-profile-2
  6
ByLayer
 62
  256
370
   -1
100
AcDbLine
 10
-3.48694660877286
 20
13.36419218728702
 11
-3.921768134214957
 21
11.41203178378217
  0
LINE
  5
CE
100
AcDbEntity
  8
outline-profile-2
  6
ByLayer
 62
  256
370
   -1
100
AcDbLine
 10
-2.450000622155076
 20
10.57195932265361
 11
-3.542433414699279
 21
10.81528630154544
  0
ARC
  5
CF
100
AcDbEntity
  8
outline-profile-2
  6
ByLayer
 62
  256
370
   -1
100
AcDbCircle
 10
-3.433728033338746
 20
11.30332640242164
 40
0.5
100
AcDbArc
 50
167.443
 51
257.4429999999988
  0
LINE
  5
D0
100
AcDbEntity
  8
outline-profile-2
  6
ByLayer
 62
  256
370
   -1
100
AcDbLine
 10
-2.450000622155074
 20
1.780272965509629
 11
-3.542433414699278
 21
1.536945986617802
  0
ARC
  5
D1
100
AcDbEntity
  8
outline-profile-2
  6
ByLayer
 62
  256
370
   -1
100
AcDbCircle
 10
-3.433728033338745
 20
1.048905885741593
 40
0.5
100
AcDbArc
 50
102.5570000000012
 51
192.557
  0
LINE
  5
D2
100
AcDbEntity
  8
outline-profile-2
  6
ByLayer
 62
  256
370
   -1
100
AcDbLine
 10
-3.444733579267503
 20
-1.201478126466719
 11
-3.921768134214957
 21
0.9402005043810684
  0
ARC
  5
D3
100
AcDbEntity
  8
outline-profile-2
  6
ByLayer
 62
  256
370
   -1
100
AcDbCircle
 10
-2.956693478391291
 20
-1.092772745106195
 40
0.5
100
AcDbArc
 50
192.557
 51
255.4631569155669
  0
LINE
  5
D4
100
AcDbEntity
  8
outline-profile-2
  6
ByLayer
 62
  256
370
   -1
100
AcDbLine
 10
-1.450000622155017
 20
-2
 11
-3.082194730018275
 21
-1.576765963901728
  0
LINE
  5
D5
100
AcDbEntity
  8
outline-profile-2
  6
ByLayer
 62
  256
370
   -1
100
AcDbLine
 10
-1.450000622155017
 20
-2
 11
-0.9999999999990442
 21
-2
  0
LINE
  5
D6
100
AcDbEntity
  8
outline-profile-2
  6
ByLayer
 62
  256
370
   -1
100
AcDbLine
 10
-0.9999999999990464
 20
12.92162243028962
 11
-0.9999999999990442
 21
-2
  0
LINE
  5
D7
100
AcDbEntity
  8
outline-profile-2
  6
ByLayer
 62
  256
370
   -1
100
AcDbLine
 10
-1.391294618638513
 20
13.40966253116583
 11
-2.890201126536115
 21
13.74352690680271
  0
ARC
  5
D8
100
AcDbEntity
  8
outline-profile-2
  6
ByLayer
 62
  256
370
   -1
100
AcDbCircle
 10
-1.499999999999047
 20
12.92162243028962
 40
0.5
100
AcDbArc
 50
0
 51
77.44299999999892
  0
DIMENSION
  5
D9
100
AcDbEntity
  8
cable
  6
ByLayer
 62
  256
370
   -1
100
AcDbDimension
  2
*D1
 10
0
 20
-40
 30
0
 11
37.65000006960855
 21
-38.125
 31
0
 70
   32
  1
delta_cx
 71
    5
 72
    0
  3
Standard
 53
0
210
0
220
0
230
1
100
AcDbAlignedDimension
 13
75.3000001392171
 23
-3.23696595372347e-05
 33
0
 14
0
 24
0
 34
0
100
AcDbRotatedDimension
  0
LINE
  5
DA
100
AcDbEntity
  8
side-view
  6
ByLayer
 62
  256
370
   -1
100
AcDbLine
 10
5.0393422316799
 20
-1.500000000000004
 11
2.328934031679996
 21
-1.500000000000011
  0
LINE
  5
DB
100
AcDbEntity
  8
side-view
  6
ByLayer
 62
  256
370
   -1
100
AcDbLine
 10
-0.9999999999990442
 20
-1.77635683940025e-15
 11
-0.9999999999990442
 21
-1.900000000000023
  0
LINE
  5
DC
100
AcDbEntity
  8
side-view
  6
ByLayer
 62
  256
370
   -1
100
AcDbLine
 10
2.328934031679996
 20
-3.552713678800501e-15
 11
2.328934031679996
 21
-1.500000000000011
  0
LINE
  5
DD
100
AcDbEntity
  8
side-view
  6
ByLayer
 62
  256
370
   -1
100
AcDbLine
 10
2.328934031679996
 20
-3.552713678800501e-15
 11
-0.9999999999990442
 21
-1.77635683940025e-15
  0
LINE
  5
DE
100
AcDbEntity
  8
side-view
  6
ByLayer
 62
  256
370
   -1
100
AcDbLine
 10
5.0393422316799
 20
6.199999999999992
 11
2.328934031679996
 21
6.199999999999992
  0
LINE
  5
DF
100
AcDbEntity
  8
side-view
  6
ByLayer
 62
  256
370
   -1
100
AcDbLine
 10
5.0393422316799
 20
6.199999999999992
 11
5.0393422316799
 21
-1.500000000000004
  0
LINE
  5
E0
100
AcDbEntity
  8
side-view
  6
ByLayer
 62
  256
370
   -1
100
AcDbLine
 10
-0.9999999999990442
 20
13.19999999999999
 11
-0.9999999999990442
 21
4.599999999999991
  0
LINE
  5
E1
100
AcDbEntity
  8
side-view
  6
ByLayer
 62
  256
370
   -1
100
AcDbLine
 10
2.328934031679996
 20
6.199999999999992
 11
2.328934031679996
 21
4.599999999999991
  0
LINE
  5
E2
100
AcDbEntity
  8
side-view
  6
ByLayer
 62
  256
370
   -1
100
AcDbLine
 10
2.328934031679996
 20
4.599999999999991
 11
-0.9999999999990442
 21
4.599999999999991
  0
DIMENSION
  5
E3
100
AcDbEntity
  8
side-view
  6
ByLayer
 62
  256
370
   -1
100
AcDbDimension
  2
*D2
 10
-15.25000062215502
 20
1.849895842859183
 30
0
 11
-13.37500062215502
 21
9.560811215144806
 31
0
 70
   32
  1
key
 71
    5
 72
    0
  3
Standard
 53
0
210
0
220
0
230
1
100
AcDbAlignedDimension
 13
5.0393422316799
 23
6.199999999999992
 33
0
 14
-1.499999999999047
 24
12.92162243028962
 34
0
 50
270
100
AcDbRotatedDimension
  0
DIMENSION
  5
E4
100
AcDbEntity
  8
cable
  6
ByLayer
 62
  256
370
   -1
100
AcDbDimension
  2
*D3
 10
-43
 20
1
 30
0
 11
-44.875
 21
38.22513434640049
 31
0
 70
   32
  1
y0cable
 71
    5
 72
    0
  3
Standard
 53
0
210
0
220
0
230
1
100
AcDbAlignedDimension
 13
-0.4498950133387036
 23
76.450268692801
 33
0
 14
0
 24
0
 34
0
 50
90
100
AcDbRotatedDimension
  0
DIMENSION
  5
E5
100
AcDbEntity
  8
side-view
  6
ByLayer
 62
  256
370
   -1
100
AcDbDimension
  2
*D4
 10
-35
 20
-7
 30
0
 11
-36
 21
2
 31
0
 70
   32
  1
mid
 71
    5
 72
    0
  3
Standard
 53
0
210
0
220
0
230
1
100
AcDbAlignedDimension
 13
2.328934031679996
 23
-3.552713678800501e-15
 33
0
 14
2.328934031679996
 24
4.599999999999991
 34
0
 50
270
100
AcDbRotatedDimension
  0
DIMENSION
  5
E6
100
AcDbEntity
  8
cable
  6
ByLayer
 62
  256
370
   -1
100
AcDbDimension
  2
*D5
 10
-39
 20
0.9999999999999999
 30
0
 11
-40.875
 21
37.65013426383381
 31
0
 70
   32
  1
delta_cy
 71
    5
 72
    0
  3
Standard
 53
0
210
0
220
0
230
1
100
AcDbAlignedDimension
 13
0.0001041076319345802
 23
75.30026852766763
 33
0
 14
0
 24
0
 34
0
 50
90
100
AcDbRotatedDimension
  0
DIMENSION
  5
E7
100
AcDbEntity
  8
side-view
  6
ByLayer
 62
  256
370
   -1
100
AcDbDimension
  2
*D6
 10
-26
 20
0
 30
0
 11
-27.875
 21
-1.75
 31
0
 70
   32
  1
lbl
 71
    5
 72
    0
  3
Standard
 53
0
210
0
220
0
230
1
100
AcDbAlignedDimension
 13
5.0393422316799
 23
-1.500000000000011
 33
0
 14
-0.9999999999990442
 24
-2
 34
0
 50
270
100
AcDbRotatedDimension
  0
DIMENSION
  5
E8
100
AcDbEntity
  8
side-view
  6
ByLayer
 62
  256
370
   -1
100
AcDbDimension
  2
*D7
 10
-32
 20
0
 30
0
 11
-30.125
 21
-0.75
 31
0
 70
   32
  1
bpl
 71
    5
 72
    0
  3
Standard
 53
0
210
0
220
0
230
1
100
AcDbAlignedDimension
 13
2.328934031679996
 23
-1.500000000000011
 33
0
 14
2.328934031679996
 24
-3.552713678800501e-15
 34
0
 50
270
100
AcDbRotatedDimension
  0
DIMENSION
  5
E9
100
AcDbEntity
  8
side-view
  6
ByLayer
 62
  256
370
   -1
100
AcDbDimension
  2
*D8
 10
-23
 20
9
 30
0
 11
-21.125
 21
5.399999999999995
 31
0
 70
   32
  1
tpl
 71
    5
 72
    0
  3
Standard
 53
0
210
0
220
0
230
1
100
AcDbAlignedDimension
 13
2.328934031679996
 23
4.599999999999991
 33
0
 14
2.328934031679996
 24
6.199999999999992
 34
0
 50
270
100
AcDbRotatedDimension
  0
LINE
  5
EA
100
AcDbEntity
  8
cable-shape
  6
ByLayer
 62
  256
370
   -1
100
AcDbLine
 10
0
 20
-7.199984031679008
 11
0
 21
4.299895649414765
  0
LINE
  5
EB
100
AcDbEntity
  8
cable-shape
  6
ByLayer
 62
  256
370
   -1
100
AcDbLine
 10
0
 20
-7.199984031679008
 11
-5.599992015839504
 21
-7.199984031679008
  0
LINE
  5
EC
100
AcDbEntity
  8
cable-shape
  6
ByLayer
 62
  256
370
   -1
100
AcDbLine
 10
-3.149999999999977
 20
-2.299999999999954
 11
-5.599992015839504
 21
-7.199984031679008
  0
LINE
  5
ED
100
AcDbEntity
  8
cable-shape
  6
ByLayer
 62
  256
370
   -1
100
AcDbLine
 10
-3.149999999999977
 20
-2.299999999999954
 11
-3.149999999999977
 21
-1.710069710567079
  0
LINE
  5
EE
100
AcDbEntity
  8
cable-shape
  6
ByLayer
 62
  256
370
   -1
100
AcDbLine
 10
-8.148637294044473
 20
4.299895649414765
 11
0
 21
4.299895649414765
  0
LINE
  5
EF
100
AcDbEntity
  8
cable-shape
  6
ByLayer
 62
  256
370
   -1
100
AcDbLine
 10
-4.609360271275301
 20
1.389428436987332
 11
-8.148637294044473
 21
4.299895649414765
  0
ARC
  5
F0
100
AcDbEntity
  8
cable-shape
  6
ByLayer
 62
  256
370
   -1
100
AcDbCircle
 10
-7.149987586430768
 20
-1.700104350585235
 40
4
100
AcDbArc
 50
0.1427434146390392
 51
50.56838130115059
  0
LINE
  5
F1
100
AcDbEntity
  8
cable-chamfer
  6
ByLayer
 62
  256
370
   -1
100
AcDbLine
 10
-3.529263184170751
 20
-3.090843916128876e-17
 11
-10.60033099603623
 21
-7.071067811865475
  0
LINE
  5
F2
100
AcDbEntity
  8
cable-chamfer
  6
ByLayer
 62
  256
370
   -1
100
AcDbLine
 10
-10.60033099603623
 20
-7.071067811865475
 11
10.60033099603624
 21
-7.071067811865475
  0
LINE
  5
F3
100
AcDbEntity
  8
cable-chamfer
  6
ByLayer
 62
  256
370
   -1
100
AcDbLine
 10
3.529263184170753
 20
-2.328977348046185e-16
 11
-3.529263184170751
 21
-3.090843916128876e-17
  0
LINE
  5
F4
100
AcDbEntity
  8
cable-chamfer
  6
ByLayer
 62
  256
370
   -1
100
AcDbLine
 10
3.529263184170753
 20
-2.328977348046185e-16
 11
10.60033099603624
 21
-7.071067811865475
  0
DIMENSION
  5
F5
100
AcDbEntity
  8
side-view
  6
ByLayer
 62
  256
370
   -1
100
AcDbDimension
  2
*D9
 10
18
 20
-2.204364238465236e-15
 30
0
 11
16.125
 21
3.088058072040809
 31
0
 70
   32
  1
nan-15-h
 71
    5
 72
    0
  3
Standard
 53
0
210
0
220
0
230
1
100
AcDbAlignedDimension
 13
-2.450000622155075
 23
6.17611614408162
 33
0
 14
0
 24
0
 34
0
 50
90
100
AcDbRotatedDimension
  0
LINE
  5
F6
100
AcDbEntity
  8
plate-support
  6
ByLayer
 62
  256
370
   -1
100
AcDbLine
 10
21.70000006958619
 20
74.25026850907879
 11
21.70000006958619
 21
73.25026850907879
  0
LINE
  5
F7
100
AcDbEntity
  8
plate-support
  6
ByLayer
 62
  256
370
   -1
100
AcDbLine
 10
15.50000006958619
 20
74.25026850907879
 11
15.50000006958619
 21
73.25026850907879
  0
LINE
  5
F8
100
AcDbEntity
  8
plate-support
  6
ByLayer
 62
  256
370
   -1
100
AcDbLine
 10
21.70000006958619
 20
73.25026850907879
 11
15.50000006958619
 21
73.25026850907879
  0
DIMENSION
  5
F9
100
AcDbEntity
  8
cable
  6
ByLayer
 62
  256
370
   -1
100
AcDbDimension
  2
*D10
 10
10
 20
-30
 30
0
 11
9.300000034793095
 21
-28.125
 31
0
 70
   32
  1
x0cable
 71
    5
 72
    0
  3
Standard
 53
0
210
0
220
0
230
1
100
AcDbAlignedDimension
 13
18.60000006958619
 23
73.25026850907879
 33
0
 14
0
 24
0
 34
0
100
AcDbRotatedDimension
  0
LINE
  5
FA
100
AcDbEntity
  8
plate-support
  6
ByLayer
 62
  256
370
   -1
100
AcDbLine
 10
0.05000006958619085
 20
35.40007304007877
 11
0.05000006958619085
 21
39.90007304007877
  0
LINE
  5
FB
100
AcDbEntity
  8
plate-support
  6
ByLayer
 62
  256
370
   -1
100
AcDbLine
 10
0.05000006958619085
 20
39.90007304007877
 11
1.050000069586191
 21
39.90007304007877
  0
LINE
  5
FC
100
AcDbEntity
  8
plate-support
  6
ByLayer
 62
  256
370
   -1
100
AcDbLine
 10
0.05000006958619085
 20
35.40007304007877
 11
1.050000069586191
 21
35.40007304007877
  0
LINE
  5
FD
100
AcDbEntity
  8
plate-support
  6
ByLayer
 62
  256
370
   -1
100
AcDbLine
 10
0.05000006958619085
 20
54.45007304007876
 11
0.05000006958619085
 21
58.95007304007876
  0
LINE
  5
FE
100
AcDbEntity
  8
plate-support
  6
ByLayer
 62
  256
370
   -1
100
AcDbLine
 10
0.05000006958619085
 20
58.95007304007876
 11
1.050000069586191
 21
58.95007304007876
  0
LINE
  5
FF
100
AcDbEntity
  8
plate-support
  6
ByLayer
 62
  256
370
   -1
100
AcDbLine
 10
0.05000006958619085
 20
54.45007304007876
 11
1.050000069586191
 21
54.45007304007876
  0
LINE
  5
100
100
AcDbEntity
  8
plate-support
  6
ByLayer
 62
  256
370
   -1
100
AcDbLine
 10
0.05000006958619085
 20
20.85007304007877
 11
0.05000006958619085
 21
16.35007304007877
  0
LINE
  5
101
100
AcDbEntity
  8
plate-support
  6
ByLayer
 62
  256
370
   -1
100
AcDbLine
 10
0.05000006958619085
 20
16.35007304007877
 11
1.050000069586191
 21
16.35007304007877
  0
LINE
  5
102
100
AcDbEntity
  8
plate-support
  6
ByLayer
 62
  256
370
   -1
100
AcDbLine
 10
0.05000006958619085
 20
20.85007304007877
 11
1.050000069586191
 21
20.85007304007877
  0
LINE
  5
103
100
AcDbEntity
  8
plate-support
  6
ByLayer
 62
  256
370
   -1
100
AcDbLine
 10
20.85020087897264
 20
0.04998331737915862
 11
16.35020087903682
 21
0.04995928436956376
  0
LINE
  5
104
100
AcDbEntity
  8
plate-support
  6
ByLayer
 62
  256
370
   -1
100
AcDbLine
 10
16.35020087903682
 20
0.04995928436956376
 11
16.35019553836802
 21
1.0499592843553
  0
LINE
  5
105
100
AcDbEntity
  8
plate-support
  6
ByLayer
 62
  256
370
   -1
100
AcDbLine
 10
20.85020087897264
 20
0.04998331737915862
 11
20.85019553830384
 21
1.049983317364898
  0
LINE
  5
106
100
AcDbEntity
  8
plate-support
  6
ByLayer
 62
  256
370
   -1
100
AcDbLine
 10
27.50000540969024
 20
0.04998331737915862
 11
27.50000006902143
 21
1.049983317364898
  0
LINE
  5
107
100
AcDbEntity
  8
plate-support
  6
ByLayer
 62
  256
370
   -1
100
AcDbLine
 10
23.99999472938232
 20
0.04996462498132236
 11
24.00000007015095
 21
1.049983317364898
  0
LINE
  5
108
100
AcDbEntity
  8
plate-support
  6
ByLayer
 62
  256
370
   -1
100
AcDbLine
 10
27.50000540969024
 20
0.04998331737915862
 11
23.99999472938232
 21
0.04996462498132236
  0
LINE
  5
109
100
AcDbEntity
  8
plate-support
  6
ByLayer
 62
  256
370
   -1
100
AcDbLine
 10
75.25000006958619
 20
35.40007304007877
 11
75.25000006958619
 21
39.90007304007877
  0
LINE
  5
10A
100
AcDbEntity
  8
plate-support
  6
ByLayer
 62
  256
370
   -1
100
AcDbLine
 10
75.25000006958619
 20
39.90007304007877
 11
74.25000006958619
 21
39.90007304007877
  0
LINE
  5
10B
100
AcDbEntity
  8
plate-support
  6
ByLayer
 62
  256
370
   -1
100
AcDbLine
 10
75.25000006958619
 20
35.40007304007877
 11
74.25000006958619
 21
35.40007304007877
  0
LINE
  5
10C
100
AcDbEntity
  8
plate-support
  6
ByLayer
 62
  256
370
   -1
100
AcDbLine
 10
75.25000006958619
 20
54.45007304007876
 11
75.25000006958619
 21
58.95007304007876
  0
LINE
  5
10D
100
AcDbEntity
  8
plate-support
  6
ByLayer
 62
  256
370
   -1
100
AcDbLine
 10
75.25000006958619
 20
58.95007304007876
 11
74.25000006958619
 21
58.95007304007876
  0
LINE
  5
10E
100
AcDbEntity
  8
plate-support
  6
ByLayer
 62
  256
370
   -1
100
AcDbLine
 10
75.25000006958619
 20
54.45007304007876
 11
74.25000006958619
 21
54.45007304007876
  0
LINE
  5
10F
100
AcDbEntity
  8
plate-support
  6
ByLayer
 62
  256
370
   -1
100
AcDbLine
 10
75.25000006958619
 20
20.85007304007877
 11
75.25000006958619
 21
16.35007304007878
  0
LINE
  5
110
100
AcDbEntity
  8
plate-support
  6
ByLayer
 62
  256
370
   -1
100
AcDbLine
 10
75.25000006958619
 20
16.35007304007878
 11
74.25000006958619
 21
16.35007304007878
  0
LINE
  5
111
100
AcDbEntity
  8
plate-support
  6
ByLayer
 62
  256
370
   -1
100
AcDbLine
 10
75.25000006958619
 20
20.85007304007877
 11
74.25000006958619
 21
20.85007304007877
  0
LINE
  5
112
100
AcDbEntity
  8
plate-support
  6
ByLayer
 62
  256
370
   -1
100
AcDbLine
 10
54.44979926019974
 20
0.04998331737918704
 11
58.94979926013556
 21
0.04995928436956376
  0
LINE
  5
113
100
AcDbEntity
  8
plate-support
  6
ByLayer
 62
  256
370
   -1
100
AcDbLine
 10
58.94979926013556
 20
0.04995928436956376
 11
58.94980460080436
 21
1.049959284355293
  0
LINE
  5
114
100
AcDbEntity
  8
plate-support
  6
ByLayer
 62
  256
370
   -1
100
AcDbLine
 10
54.44979926019974
 20
0.04998331737918704
 11
54.44980460086854
 21
1.049983317364884
  0
LINE
  5
115
100
AcDbEntity
  8
plate-support
  6
ByLayer
 62
  256
370
   -1
100
AcDbLine
 10
47.79999472948214
 20
0.04998331737918704
 11
47.80000007015095
 21
1.049983317364884
  0
LINE
  5
116
100
AcDbEntity
  8
plate-support
  6
ByLayer
 62
  256
370
   -1
100
AcDbLine
 10
51.30000540979006
 20
0.04996462498133392
 11
51.30000006902143
 21
1.049983317364884
  0
LINE
  5
117
100
AcDbEntity
  8
plate-support
  6
ByLayer
 62
  256
370
   -1
100
AcDbLine
 10
47.79999472948214
 20
0.04998331737918704
 11
51.30000540979006
 21
0.04996462498133392
  0
LINE
  5
118
100
AcDbEntity
  8
plate-support
  6
ByLayer
 62
  256
370
   -1
100
AcDbLine
 10
1.050000069586191
 20
58.95007304007876
 11
1.050000069586191
 21
74.25026850907879
  0
LINE
  5
119
100
AcDbEntity
  8
plate-support
  6
ByLayer
 62
  256
370
   -1
100
AcDbLine
 10
1.050000069586191
 20
39.90007304007877
 11
1.050000069586191
 21
54.45007304007876
  0
LINE
  5
11A
100
AcDbEntity
  8
plate-support
  6
ByLayer
 62
  256
370
   -1
100
AcDbLine
 10
1.050000069586191
 20
20.85007304007877
 11
1.050000069586191
 21
35.40007304007877
  0
LINE
  5
11B
100
AcDbEntity
  8
plate-support
  6
ByLayer
 62
  256
370
   -1
100
AcDbLine
 10
1.050000069586191
 20
1.049877571078737
 11
1.050000069586191
 21
16.35007304007877
  0
LINE
  5
11C
100
AcDbEntity
  8
plate-support
  6
ByLayer
 62
  256
370
   -1
100
AcDbLine
 10
16.35019553880442
 20
1.049877571078737
 11
1.050000069586191
 21
1.049877571078737
  0
LINE
  5
11D
100
AcDbEntity
  8
plate-support
  6
ByLayer
 62
  256
370
   -1
100
AcDbLine
 10
24.0000000695862
 20
1.049877571078737
 11
20.8501955388686
 21
1.049877571078737
  0
LINE
  5
11E
100
AcDbEntity
  8
plate-support
  6
ByLayer
 62
  256
370
   -1
100
AcDbLine
 10
47.8000000695862
 20
1.049877571078737
 11
27.50000006958619
 21
1.049877571078737
  0
LINE
  5
11F
100
AcDbEntity
  8
plate-support
  6
ByLayer
 62
  256
370
   -1
100
AcDbLine
 10
54.44980460030379
 20
1.049877571078737
 11
51.30000006958619
 21
1.049877571078737
  0
LINE
  5
120
100
AcDbEntity
  8
plate-support
  6
ByLayer
 62
  256
370
   -1
100
AcDbLine
 10
74.25000006958619
 20
1.049877571078737
 11
58.94980460036796
 21
1.049877571078737
  0
LINE
  5
121
100
AcDbEntity
  8
plate-support
  6
ByLayer
 62
  256
370
   -1
100
AcDbLine
 10
74.25000006958619
 20
1.049877571078737
 11
74.25000006958619
 21
16.35007304007878
  0
LINE
  5
122
100
AcDbEntity
  8
plate-support
  6
ByLayer
 62
  256
370
   -1
100
AcDbLine
 10
74.25000006958619
 20
20.85007304007877
 11
74.25000006958619
 21
35.40007304007877
  0
LINE
  5
123
100
AcDbEntity
  8
plate-support
  6
ByLayer
 62
  256
370
   -1
100
AcDbLine
 10
74.25000006958619
 20
39.90007304007877
 11
74.25000006958619
 21
54.45007304007876
  0
LINE
  5
124
100
AcDbEntity
  8
plate-support
  6
ByLayer
 62
  256
370
   -1
100
AcDbLine
 10
74.25000006958619
 20
58.95007304007876
 11
74.25000006958619
 21
74.25026850907879
  0
LINE
  5
125
100
AcDbEntity
  8
bottom-support
  6
ByLayer
 62
  256
370
   -1
100
AcDbLine
 10
1.050000069586191
 20
74.25026850907879
 11
74.25000006958619
 21
74.25026850907879
  0
LINE
  5
126
100
AcDbEntity
  8
bottom-support
  6
ByLayer
 62
  256
370
   -1
100
AcDbLine
 10
74.25000006958619
 20
74.25026850907879
 11
74.25000006958619
 21
1.049877571078737
  0
LINE
  5
127
100
AcDbEntity
  8
bottom-support
  6
ByLayer
 62
  256
370
   -1
100
AcDbLine
 10
74.25000006958619
 20
1.049877571078737
 11
1.050000069586191
 21
1.049877571078737
  0
LINE
  5
128
100
AcDbEntity
  8
bottom-support
  6
ByLayer
 62
  256
370
   -1
100
AcDbLine
 10
1.050000069586191
 20
1.049877571078737
 11
1.050000069586191
 21
74.25026850907879
  0
LINE
  5
129
100
AcDbEntity
  8
bottom-support
  6
ByLayer
 62
  256
370
   -1
100
AcDbLine
 10
0.05000006958619085
 20
75.25018679578797
 11
75.25000006958619
 21
75.25018679578795
  0
LINE
  5
12A
100
AcDbEntity
  8
bottom-support
  6
ByLayer
 62
  256
370
   -1
100
AcDbLine
 10
75.25000006958619
 20
0.04995928436956376
 11
75.25000006958619
 21
75.25018679578795
  0
LINE
  5
12B
100
AcDbEntity
  8
bottom-support
  6
ByLayer
 62
  256
370
   -1
100
AcDbLine
 10
0.05000006958619085
 20
75.25018679578797
 11
0.05000006958619085
 21
0.04995928436956375
  0
LINE
  5
12C
100
AcDbEntity
  8
bottom-support
  6
ByLayer
 62
  256
370
   -1
100
AcDbLine
 10
0.05000006958619085
 20
0.04995928436956375
 11
75.25000006958619
 21
0.04995928436956376
  0
ENDSEC
  0
SECTION
  2
OBJECTS
  0
DICTIONARY
  5
C
330
0
100
AcDbDictionary
281
    1
  3
ACAD_GROUP
350
D
  0
DICTIONARY
  5
D
330
C
100
AcDbDictionary
281
    1
  0
ENDSEC
  0
EOF
